M48
;DRILL file {KiCad 4.0.6} date 09/10/17 16:34:31
;FORMAT={-:-/ absolute / inch / decimal}
FMAT,2
INCH,TZ
T1C0.020
T2C0.031
T3C0.130
%
G90
G05
M72
T1
X4.0792Y-4.7244
X4.1992Y-3.7244
X4.1992Y-5.7244
X4.2392Y-4.2644
X4.3192Y-5.1444
X4.3292Y-4.3144
X4.3392Y-4.1644
X4.3492Y-4.9944
X4.4092Y-4.4544
X4.4092Y-4.5744
X4.4092Y-4.6744
X4.4292Y-4.1644
X4.4292Y-4.8244
X4.4492Y-5.4244
X4.4692Y-4.0244
X4.5492Y-4.5244
X4.5492Y-4.8644
X4.6392Y-4.8644
X4.6492Y-4.5244
X4.7492Y-4.5244
X4.7492Y-4.6244
X4.7592Y-4.8644
X4.7592Y-5.2244
X4.7692Y-4.1994
X4.8492Y-4.5244
X4.8992Y-4.8744
X4.9492Y-4.5244
X4.9492Y-5.2544
X5.0892Y-4.6444
X5.1092Y-4.5244
X5.1792Y-4.1744
X5.2092Y-4.6444
X5.2292Y-4.8244
X5.3492Y-4.2344
X5.3492Y-4.5144
X5.3992Y-4.2044
X5.4492Y-4.9244
X5.4992Y-4.5344
X5.6642Y-4.9844
X5.6992Y-5.0944
X5.7492Y-4.7744
X5.7592Y-5.0544
X5.8992Y-4.3844
X5.8992Y-5.0644
X6.6992Y-4.3844
X6.6992Y-5.0644
X6.8692Y-4.5744
X7.0292Y-4.4544
X7.0292Y-4.5744
X7.0292Y-4.9044
X7.0692Y-4.3744
X7.1092Y-4.8644
X7.2592Y-4.8344
X7.2642Y-4.4994
X7.3092Y-4.4144
X7.3152Y-4.6304
X7.3292Y-5.0344
X7.3392Y-4.8444
X7.4192Y-4.6444
X7.4192Y-4.7944
X7.4692Y-5.0344
X7.4792Y-4.3744
X7.4842Y-5.2094
X7.4992Y-4.6144
X7.4992Y-4.9244
X7.5092Y-4.2444
X7.5292Y-5.2444
X7.5892Y-4.2444
X7.5992Y-4.4944
X7.6092Y-5.2094
X7.6192Y-5.0344
X7.6592Y-5.1944
X7.7192Y-4.4844
X7.7192Y-4.9744
X7.7392Y-4.3344
X7.7592Y-5.2444
X7.7692Y-4.7644
X7.7892Y-4.4844
X7.8192Y-4.5844
X7.8492Y-5.0944
X7.8792Y-4.6444
X7.8892Y-4.2944
X7.8992Y-4.9144
X7.9192Y-5.1644
X7.9492Y-4.1044
X7.9892Y-5.1144
X7.9992Y-4.0744
X8.0792Y-4.2944
X8.0992Y-5.1244
X8.1392Y-4.0544
X8.1592Y-4.5544
X8.1832Y-4.2874
X8.1992Y-5.1244
X8.2092Y-4.5044
X8.2492Y-4.1044
X8.2992Y-5.2744
X8.3092Y-4.9144
X8.3192Y-4.5844
X8.3692Y-4.5044
X8.3992Y-3.7244
X8.3992Y-4.2044
X8.3992Y-4.2744
X8.3992Y-5.7244
X8.4092Y-4.3744
X8.4092Y-4.6344
X8.5192Y-4.7244
T2
X6.2492Y-4.6457
X6.3492Y-4.6457
T3
X5.9242Y-4.7244
X6.6742Y-4.7244
T0
M30
