G04 #@! TF.FileFunction,Profile,NP*
%FSLAX46Y46*%
G04 Gerber Fmt 4.6, Leading zero omitted, Abs format (unit mm)*
G04 Created by KiCad (PCBNEW 4.0.6) date 09/10/17 16:34:28*
%MOMM*%
%LPD*%
G01*
G04 APERTURE LIST*
%ADD10C,0.100000*%
%ADD11C,0.025400*%
%ADD12C,0.150000*%
G04 APERTURE END LIST*
D10*
D11*
X170157460Y-130160000D02*
X170170160Y-130154920D01*
D12*
X149840000Y-130160000D02*
X152557800Y-131379200D01*
X152557800Y-131379200D02*
X155580400Y-132242800D01*
X155580400Y-132242800D02*
X158501400Y-132649200D01*
X158501400Y-132649200D02*
X160000000Y-132700000D01*
X161511300Y-132661900D02*
X160000000Y-132700000D01*
X164432300Y-132255500D02*
X161511300Y-132661900D01*
X167454900Y-131391900D02*
X164432300Y-132255500D01*
X170172700Y-130172700D02*
X167454900Y-131391900D01*
X170172700Y-109827300D02*
X167454900Y-108608100D01*
X167454900Y-108608100D02*
X164432300Y-107744500D01*
X164432300Y-107744500D02*
X161511300Y-107338100D01*
X161511300Y-107338100D02*
X160000000Y-107300000D01*
X158501400Y-107350800D02*
X160000000Y-107300000D01*
X155580400Y-107757200D02*
X158501400Y-107350800D01*
X152557800Y-108620800D02*
X155580400Y-107757200D01*
X149840000Y-109840000D02*
X152557800Y-108620800D01*
X215867300Y-92072700D02*
X217035700Y-99337100D01*
X215867300Y-147927300D02*
X217035700Y-140688300D01*
X217035700Y-140688300D02*
X217797700Y-133931900D01*
X217797700Y-133931900D02*
X218254900Y-127480300D01*
X218254900Y-127480300D02*
X218432700Y-120012700D01*
X218254900Y-112545100D02*
X218432700Y-120012700D01*
X217797700Y-106093500D02*
X218254900Y-112545100D01*
X217035700Y-99337100D02*
X217797700Y-106093500D01*
X104145400Y-147914600D02*
X102977000Y-140675600D01*
X102977000Y-140675600D02*
X102215000Y-133919200D01*
X102215000Y-133919200D02*
X101757800Y-127467600D01*
X101757800Y-127467600D02*
X101580000Y-120000000D01*
X101757800Y-112532400D02*
X101580000Y-120000000D01*
X102215000Y-106080800D02*
X101757800Y-112532400D01*
X102977000Y-99324400D02*
X102215000Y-106080800D01*
X104145400Y-92085400D02*
X102977000Y-99324400D01*
D11*
X215811420Y-92082860D02*
X215841900Y-92075240D01*
X168872220Y-65471280D02*
X168879840Y-65471280D01*
D12*
X173042900Y-108150900D02*
X170172700Y-109827300D01*
X179596100Y-104620300D02*
X173042900Y-108150900D01*
X186301700Y-101445300D02*
X179596100Y-104620300D01*
X193413700Y-98524300D02*
X186301700Y-101445300D01*
X201186100Y-95831900D02*
X193413700Y-98524300D01*
X208475900Y-93749100D02*
X201186100Y-95831900D01*
X215867300Y-92072700D02*
X208475900Y-93749100D01*
X215867300Y-147927300D02*
X208475900Y-146250900D01*
X208475900Y-146250900D02*
X201186100Y-144168100D01*
X201186100Y-144168100D02*
X193413700Y-141475700D01*
X193413700Y-141475700D02*
X186301700Y-138554700D01*
X186301700Y-138554700D02*
X179596100Y-135379700D01*
X179596100Y-135379700D02*
X173042900Y-131849100D01*
X173042900Y-131849100D02*
X170172700Y-130172700D01*
D11*
X104188580Y-147916886D02*
X104158100Y-147922220D01*
D12*
X104145400Y-147914600D02*
X111536800Y-146238200D01*
X111536800Y-146238200D02*
X118826600Y-144155400D01*
X118826600Y-144155400D02*
X126599000Y-141463000D01*
X126599000Y-141463000D02*
X133711000Y-138542000D01*
X133711000Y-138542000D02*
X140416600Y-135367000D01*
X140416600Y-135367000D02*
X146969800Y-131836400D01*
X146969800Y-131836400D02*
X149840000Y-130160000D01*
X146969800Y-108163600D02*
X149840000Y-109840000D01*
X140416600Y-104633000D02*
X146969800Y-108163600D01*
X133711000Y-101458000D02*
X140416600Y-104633000D01*
X126599000Y-98537000D02*
X133711000Y-101458000D01*
X118826600Y-95844600D02*
X126599000Y-98537000D01*
X111536800Y-93761800D02*
X118826600Y-95844600D01*
X104145400Y-92085400D02*
X111536800Y-93761800D01*
D11*
X170157460Y-109840000D02*
X170170160Y-109845080D01*
X107744580Y-162191686D02*
X107714100Y-162197020D01*
X104155560Y-147912060D02*
X104160640Y-147924760D01*
X149842540Y-130160000D02*
X149832380Y-130152380D01*
X170167620Y-130154920D02*
X170175240Y-130154920D01*
X215811420Y-147917140D02*
X215841900Y-147924760D01*
X215844440Y-92087940D02*
X215841900Y-92072700D01*
M02*
