G04 #@! TF.FileFunction,Legend,Top*
%FSLAX46Y46*%
G04 Gerber Fmt 4.6, Leading zero omitted, Abs format (unit mm)*
G04 Created by KiCad (PCBNEW 4.0.6) date 09/10/17 15:15:48*
%MOMM*%
%LPD*%
G01*
G04 APERTURE LIST*
%ADD10C,0.100000*%
%ADD11C,0.300000*%
%ADD12C,0.066040*%
%ADD13C,0.177800*%
%ADD14C,0.254000*%
%ADD15C,0.203200*%
%ADD16C,0.127000*%
%ADD17C,0.010000*%
G04 APERTURE END LIST*
D10*
D11*
X152035714Y-111788571D02*
X152035714Y-110288571D01*
X152535714Y-111360000D01*
X153035714Y-110288571D01*
X153035714Y-111788571D01*
X154392857Y-111788571D02*
X154392857Y-111002857D01*
X154321428Y-110860000D01*
X154178571Y-110788571D01*
X153892857Y-110788571D01*
X153750000Y-110860000D01*
X154392857Y-111717143D02*
X154250000Y-111788571D01*
X153892857Y-111788571D01*
X153750000Y-111717143D01*
X153678571Y-111574286D01*
X153678571Y-111431429D01*
X153750000Y-111288571D01*
X153892857Y-111217143D01*
X154250000Y-111217143D01*
X154392857Y-111145714D01*
X154892857Y-110788571D02*
X155464286Y-110788571D01*
X155107143Y-110288571D02*
X155107143Y-111574286D01*
X155178571Y-111717143D01*
X155321429Y-111788571D01*
X155464286Y-111788571D01*
X155964286Y-111788571D02*
X155964286Y-110788571D01*
X155964286Y-111074286D02*
X156035714Y-110931429D01*
X156107143Y-110860000D01*
X156250000Y-110788571D01*
X156392857Y-110788571D01*
X156892857Y-111788571D02*
X156892857Y-110788571D01*
X156892857Y-110288571D02*
X156821428Y-110360000D01*
X156892857Y-110431429D01*
X156964285Y-110360000D01*
X156892857Y-110288571D01*
X156892857Y-110431429D01*
X157464286Y-111788571D02*
X158250000Y-110788571D01*
X157464286Y-110788571D02*
X158250000Y-111788571D01*
X160464286Y-111002857D02*
X160678572Y-111074286D01*
X160750000Y-111145714D01*
X160821429Y-111288571D01*
X160821429Y-111502857D01*
X160750000Y-111645714D01*
X160678572Y-111717143D01*
X160535714Y-111788571D01*
X159964286Y-111788571D01*
X159964286Y-110288571D01*
X160464286Y-110288571D01*
X160607143Y-110360000D01*
X160678572Y-110431429D01*
X160750000Y-110574286D01*
X160750000Y-110717143D01*
X160678572Y-110860000D01*
X160607143Y-110931429D01*
X160464286Y-111002857D01*
X159964286Y-111002857D01*
X161678572Y-111788571D02*
X161535714Y-111717143D01*
X161464286Y-111645714D01*
X161392857Y-111502857D01*
X161392857Y-111074286D01*
X161464286Y-110931429D01*
X161535714Y-110860000D01*
X161678572Y-110788571D01*
X161892857Y-110788571D01*
X162035714Y-110860000D01*
X162107143Y-110931429D01*
X162178572Y-111074286D01*
X162178572Y-111502857D01*
X162107143Y-111645714D01*
X162035714Y-111717143D01*
X161892857Y-111788571D01*
X161678572Y-111788571D01*
X162678572Y-110788571D02*
X162964286Y-111788571D01*
X163250000Y-111074286D01*
X163535715Y-111788571D01*
X163821429Y-110788571D01*
X165321429Y-110288571D02*
X166178572Y-110288571D01*
X165750001Y-111788571D02*
X165750001Y-110288571D01*
X166678572Y-111788571D02*
X166678572Y-110788571D01*
X166678572Y-110288571D02*
X166607143Y-110360000D01*
X166678572Y-110431429D01*
X166750000Y-110360000D01*
X166678572Y-110288571D01*
X166678572Y-110431429D01*
X167964286Y-111717143D02*
X167821429Y-111788571D01*
X167535715Y-111788571D01*
X167392858Y-111717143D01*
X167321429Y-111574286D01*
X167321429Y-111002857D01*
X167392858Y-110860000D01*
X167535715Y-110788571D01*
X167821429Y-110788571D01*
X167964286Y-110860000D01*
X168035715Y-111002857D01*
X168035715Y-111145714D01*
X167321429Y-111288571D01*
D12*
X190779720Y-120198120D02*
X190779720Y-119801880D01*
X190779720Y-119801880D02*
X190180280Y-119801880D01*
X190180280Y-120198120D02*
X190180280Y-119801880D01*
X190779720Y-120198120D02*
X190180280Y-120198120D01*
X190779720Y-115118120D02*
X190779720Y-114721880D01*
X190779720Y-114721880D02*
X190180280Y-114721880D01*
X190180280Y-115118120D02*
X190180280Y-114721880D01*
X190779720Y-115118120D02*
X190180280Y-115118120D01*
X182026880Y-126014720D02*
X182423120Y-126014720D01*
X182423120Y-126014720D02*
X182423120Y-125415280D01*
X182026880Y-125415280D02*
X182423120Y-125415280D01*
X182026880Y-126014720D02*
X182026880Y-125415280D01*
D13*
X141458000Y-130139680D02*
X140442000Y-130139680D01*
X138918000Y-130139680D02*
X137902000Y-130139680D01*
X140442000Y-127640320D02*
X141458000Y-127640320D01*
X137902000Y-127640320D02*
X138918000Y-127640320D01*
X113010000Y-127640320D02*
X113010000Y-130139680D01*
X113010000Y-130139680D02*
X113645000Y-130139680D01*
X113010000Y-127640320D02*
X113645000Y-127640320D01*
X115042000Y-127640320D02*
X116058000Y-127640320D01*
X117582000Y-127640320D02*
X118598000Y-127640320D01*
X120122000Y-127640320D02*
X121138000Y-127640320D01*
X122662000Y-127640320D02*
X123678000Y-127640320D01*
X125202000Y-127640320D02*
X126218000Y-127640320D01*
X116058000Y-130139680D02*
X115042000Y-130139680D01*
X118598000Y-130139680D02*
X117582000Y-130139680D01*
X121138000Y-130139680D02*
X120122000Y-130139680D01*
X123678000Y-130139680D02*
X122662000Y-130139680D01*
X126218000Y-130139680D02*
X125202000Y-130139680D01*
X143490000Y-130139680D02*
X143490000Y-127640320D01*
X130282000Y-127640320D02*
X131298000Y-127640320D01*
X131298000Y-130139680D02*
X130282000Y-130139680D01*
X143490000Y-130139680D02*
X142855000Y-130139680D01*
X143490000Y-127640320D02*
X142855000Y-127640320D01*
X127742000Y-127640320D02*
X128755460Y-127640320D01*
X128755460Y-130139680D02*
X127742000Y-130139680D01*
X132822000Y-127640320D02*
X133838000Y-127640320D01*
X135362000Y-127640320D02*
X136378000Y-127640320D01*
X133838000Y-130139680D02*
X132822000Y-130139680D01*
X136378000Y-130139680D02*
X135362000Y-130139680D01*
X141458000Y-112359680D02*
X140442000Y-112359680D01*
X138918000Y-112359680D02*
X137902000Y-112359680D01*
X140442000Y-109860320D02*
X141458000Y-109860320D01*
X137902000Y-109860320D02*
X138918000Y-109860320D01*
X113010000Y-109860320D02*
X113010000Y-112359680D01*
X113010000Y-112359680D02*
X113645000Y-112359680D01*
X113010000Y-109860320D02*
X113645000Y-109860320D01*
X115042000Y-109860320D02*
X116058000Y-109860320D01*
X117582000Y-109860320D02*
X118598000Y-109860320D01*
X120122000Y-109860320D02*
X121138000Y-109860320D01*
X122662000Y-109860320D02*
X123678000Y-109860320D01*
X125202000Y-109860320D02*
X126218000Y-109860320D01*
X116058000Y-112359680D02*
X115042000Y-112359680D01*
X118598000Y-112359680D02*
X117582000Y-112359680D01*
X121138000Y-112359680D02*
X120122000Y-112359680D01*
X123678000Y-112359680D02*
X122662000Y-112359680D01*
X126218000Y-112359680D02*
X125202000Y-112359680D01*
X143490000Y-112359680D02*
X143490000Y-109860320D01*
X130282000Y-109860320D02*
X131298000Y-109860320D01*
X131298000Y-112359680D02*
X130282000Y-112359680D01*
X143490000Y-112359680D02*
X142855000Y-112359680D01*
X143490000Y-109860320D02*
X142855000Y-109860320D01*
X127742000Y-109860320D02*
X128755460Y-109860320D01*
X128755460Y-112359680D02*
X127742000Y-112359680D01*
X132822000Y-109860320D02*
X133838000Y-109860320D01*
X135362000Y-109860320D02*
X136378000Y-109860320D01*
X133838000Y-112359680D02*
X132822000Y-112359680D01*
X136378000Y-112359680D02*
X135362000Y-112359680D01*
D14*
X204450000Y-133970000D02*
G75*
G03X204450000Y-133970000I-127000J0D01*
G01*
D15*
X202430700Y-133817600D02*
X203802300Y-133817600D01*
X203929300Y-131582400D02*
X202430700Y-131582400D01*
X202430700Y-133677900D02*
X202430700Y-133817600D01*
X202430700Y-131582400D02*
X202430700Y-131722100D01*
X203802300Y-133817600D02*
X203929300Y-133677900D01*
X203929300Y-131722100D02*
X203929300Y-131582400D01*
D10*
X204450000Y-134033500D02*
G75*
G03X204450000Y-134033500I-254000J0D01*
G01*
D14*
X207244000Y-131430000D02*
G75*
G03X207244000Y-131430000I-127000J0D01*
G01*
D15*
X209009300Y-131582400D02*
X207637700Y-131582400D01*
X207510700Y-133817600D02*
X209009300Y-133817600D01*
X209009300Y-131722100D02*
X209009300Y-131582400D01*
X209009300Y-133817600D02*
X209009300Y-133677900D01*
X207637700Y-131582400D02*
X207510700Y-131722100D01*
X207510700Y-133677900D02*
X207510700Y-133817600D01*
D10*
X207498000Y-131366500D02*
G75*
G03X207498000Y-131366500I-254000J0D01*
G01*
D14*
X207244000Y-106030000D02*
G75*
G03X207244000Y-106030000I-127000J0D01*
G01*
D15*
X209009300Y-106182400D02*
X207637700Y-106182400D01*
X207510700Y-108417600D02*
X209009300Y-108417600D01*
X209009300Y-106322100D02*
X209009300Y-106182400D01*
X209009300Y-108417600D02*
X209009300Y-108277900D01*
X207637700Y-106182400D02*
X207510700Y-106322100D01*
X207510700Y-108277900D02*
X207510700Y-108417600D01*
D10*
X207498000Y-105966500D02*
G75*
G03X207498000Y-105966500I-254000J0D01*
G01*
D14*
X202164000Y-106030000D02*
G75*
G03X202164000Y-106030000I-127000J0D01*
G01*
D15*
X203929300Y-106182400D02*
X202557700Y-106182400D01*
X202430700Y-108417600D02*
X203929300Y-108417600D01*
X203929300Y-106322100D02*
X203929300Y-106182400D01*
X203929300Y-108417600D02*
X203929300Y-108277900D01*
X202557700Y-106182400D02*
X202430700Y-106322100D01*
X202430700Y-108277900D02*
X202430700Y-108417600D01*
D10*
X202418000Y-105966500D02*
G75*
G03X202418000Y-105966500I-254000J0D01*
G01*
D12*
X191551880Y-123474720D02*
X191948120Y-123474720D01*
X191948120Y-123474720D02*
X191948120Y-122875280D01*
X191551880Y-122875280D02*
X191948120Y-122875280D01*
X191551880Y-123474720D02*
X191551880Y-122875280D01*
X193319720Y-120198120D02*
X193319720Y-119801880D01*
X193319720Y-119801880D02*
X192720280Y-119801880D01*
X192720280Y-120198120D02*
X192720280Y-119801880D01*
X193319720Y-120198120D02*
X192720280Y-120198120D01*
X186471880Y-114584720D02*
X186868120Y-114584720D01*
X186868120Y-114584720D02*
X186868120Y-113985280D01*
X186471880Y-113985280D02*
X186868120Y-113985280D01*
X186471880Y-114584720D02*
X186471880Y-113985280D01*
X185699720Y-125278120D02*
X185699720Y-124881880D01*
X185699720Y-124881880D02*
X185100280Y-124881880D01*
X185100280Y-125278120D02*
X185100280Y-124881880D01*
X185699720Y-125278120D02*
X185100280Y-125278120D01*
X186868120Y-115890280D02*
X186471880Y-115890280D01*
X186471880Y-115890280D02*
X186471880Y-116489720D01*
X186868120Y-116489720D02*
X186471880Y-116489720D01*
X186868120Y-115890280D02*
X186868120Y-116489720D01*
X182423120Y-117795280D02*
X182026880Y-117795280D01*
X182026880Y-117795280D02*
X182026880Y-118394720D01*
X182423120Y-118394720D02*
X182026880Y-118394720D01*
X182423120Y-117795280D02*
X182423120Y-118394720D01*
X117119720Y-104958120D02*
X117119720Y-104561880D01*
X117119720Y-104561880D02*
X116520280Y-104561880D01*
X116520280Y-104958120D02*
X116520280Y-104561880D01*
X117119720Y-104958120D02*
X116520280Y-104958120D01*
X199669720Y-112578120D02*
X199669720Y-112181880D01*
X199669720Y-112181880D02*
X199070280Y-112181880D01*
X199070280Y-112578120D02*
X199070280Y-112181880D01*
X199669720Y-112578120D02*
X199070280Y-112578120D01*
X204150280Y-127421880D02*
X204150280Y-127818120D01*
X204150280Y-127818120D02*
X204749720Y-127818120D01*
X204749720Y-127421880D02*
X204749720Y-127818120D01*
X204150280Y-127421880D02*
X204749720Y-127421880D01*
X206690280Y-127421880D02*
X206690280Y-127818120D01*
X206690280Y-127818120D02*
X207289720Y-127818120D01*
X207289720Y-127421880D02*
X207289720Y-127818120D01*
X206690280Y-127421880D02*
X207289720Y-127421880D01*
X209230280Y-127421880D02*
X209230280Y-127818120D01*
X209230280Y-127818120D02*
X209829720Y-127818120D01*
X209829720Y-127421880D02*
X209829720Y-127818120D01*
X209230280Y-127421880D02*
X209829720Y-127421880D01*
X201610280Y-127421880D02*
X201610280Y-127818120D01*
X201610280Y-127818120D02*
X202209720Y-127818120D01*
X202209720Y-127421880D02*
X202209720Y-127818120D01*
X201610280Y-127421880D02*
X202209720Y-127421880D01*
X209829720Y-112578120D02*
X209829720Y-112181880D01*
X209829720Y-112181880D02*
X209230280Y-112181880D01*
X209230280Y-112578120D02*
X209230280Y-112181880D01*
X209829720Y-112578120D02*
X209230280Y-112578120D01*
X202209720Y-112578120D02*
X202209720Y-112181880D01*
X202209720Y-112181880D02*
X201610280Y-112181880D01*
X201610280Y-112578120D02*
X201610280Y-112181880D01*
X202209720Y-112578120D02*
X201610280Y-112578120D01*
X207289720Y-112578120D02*
X207289720Y-112181880D01*
X207289720Y-112181880D02*
X206690280Y-112181880D01*
X206690280Y-112578120D02*
X206690280Y-112181880D01*
X207289720Y-112578120D02*
X206690280Y-112578120D01*
X204749720Y-112578120D02*
X204749720Y-112181880D01*
X204749720Y-112181880D02*
X204150280Y-112181880D01*
X204150280Y-112578120D02*
X204150280Y-112181880D01*
X204749720Y-112578120D02*
X204150280Y-112578120D01*
X109398120Y-114620280D02*
X109001880Y-114620280D01*
X109001880Y-114620280D02*
X109001880Y-115219720D01*
X109398120Y-115219720D02*
X109001880Y-115219720D01*
X109398120Y-114620280D02*
X109398120Y-115219720D01*
X109398120Y-117160280D02*
X109001880Y-117160280D01*
X109001880Y-117160280D02*
X109001880Y-117759720D01*
X109398120Y-117759720D02*
X109001880Y-117759720D01*
X109398120Y-117160280D02*
X109398120Y-117759720D01*
X109001880Y-125379720D02*
X109398120Y-125379720D01*
X109398120Y-125379720D02*
X109398120Y-124780280D01*
X109001880Y-124780280D02*
X109398120Y-124780280D01*
X109001880Y-125379720D02*
X109001880Y-124780280D01*
X109001880Y-122839720D02*
X109398120Y-122839720D01*
X109398120Y-122839720D02*
X109398120Y-122240280D01*
X109001880Y-122240280D02*
X109398120Y-122240280D01*
X109001880Y-122839720D02*
X109001880Y-122240280D01*
X109001880Y-120299720D02*
X109398120Y-120299720D01*
X109398120Y-120299720D02*
X109398120Y-119700280D01*
X109001880Y-119700280D02*
X109398120Y-119700280D01*
X109001880Y-120299720D02*
X109001880Y-119700280D01*
D15*
X120563960Y-103360460D02*
X123236040Y-103360460D01*
X123236040Y-106159540D02*
X120563960Y-106159540D01*
X123998040Y-104889540D02*
X123998040Y-104630460D01*
X119801960Y-104630460D02*
X119801960Y-104889540D01*
D16*
X122702640Y-104760000D02*
G75*
G03X122702640Y-104760000I-802640J0D01*
G01*
D15*
X187870000Y-119100000D02*
G75*
G03X187870000Y-119100000I-100000J0D01*
G01*
X185670000Y-120429260D02*
X185670000Y-119570740D01*
X187670000Y-119570740D02*
X187670000Y-120429260D01*
X186936700Y-120625000D02*
X186403300Y-120625000D01*
X210670000Y-121950000D02*
X210670000Y-118050000D01*
X200770000Y-121950000D02*
X200770000Y-118050000D01*
X210920000Y-117300000D02*
G75*
G03X210920000Y-117300000I-100000J0D01*
G01*
X182125000Y-119905000D02*
X182325000Y-119905000D01*
X180725000Y-123655000D02*
X180725000Y-121005000D01*
X180725000Y-123655000D02*
X181125000Y-123655000D01*
X183325000Y-123655000D02*
X183725000Y-123655000D01*
X183725000Y-123655000D02*
X183725000Y-121005000D01*
D12*
X212369720Y-120198120D02*
X212369720Y-119801880D01*
X212369720Y-119801880D02*
X211770280Y-119801880D01*
X211770280Y-120198120D02*
X211770280Y-119801880D01*
X212369720Y-120198120D02*
X211770280Y-120198120D01*
D15*
X150475000Y-121854200D02*
G75*
G03X150475000Y-118145800I0J1854200D01*
G01*
X150475000Y-118145800D02*
G75*
G03X150475000Y-121854200I0J-1854200D01*
G01*
X150475000Y-121854200D02*
G75*
G03X150475000Y-118145800I0J1854200D01*
G01*
X150475000Y-118145800D02*
G75*
G03X150475000Y-121854200I0J-1854200D01*
G01*
X169525000Y-121854200D02*
G75*
G03X169525000Y-118145800I0J1854200D01*
G01*
X169525000Y-118145800D02*
G75*
G03X169525000Y-121854200I0J-1854200D01*
G01*
X169525000Y-121854200D02*
G75*
G03X169525000Y-118145800I0J1854200D01*
G01*
X169525000Y-118145800D02*
G75*
G03X169525000Y-121854200I0J-1854200D01*
G01*
D17*
G36*
X209542700Y-138097500D02*
X209695100Y-138018760D01*
X210071020Y-138326100D01*
X210330100Y-138067020D01*
X210022760Y-137691100D01*
X210101500Y-137538700D01*
X210152300Y-137376140D01*
X210637440Y-137325340D01*
X210637440Y-136964660D01*
X210152300Y-136913860D01*
X210101500Y-136751300D01*
X210022760Y-136598900D01*
X210330100Y-136222980D01*
X210071020Y-135963900D01*
X209695100Y-136271240D01*
X209542700Y-136192500D01*
X209380140Y-136141700D01*
X209329340Y-135656560D01*
X208968660Y-135656560D01*
X208917860Y-136141700D01*
X208755300Y-136192500D01*
X208602900Y-136271240D01*
X208226980Y-135963900D01*
X207967900Y-136222980D01*
X208275240Y-136598900D01*
X208196500Y-136751300D01*
X208145700Y-136913860D01*
X207660560Y-136964660D01*
X207660560Y-137325340D01*
X208145700Y-137376140D01*
X208196500Y-137538700D01*
X208275240Y-137691100D01*
X207967900Y-138067020D01*
X208226980Y-138326100D01*
X208602900Y-138018760D01*
X208755300Y-138097500D01*
X208971200Y-137576800D01*
X208874680Y-137523460D01*
X208793400Y-137447260D01*
X208732440Y-137355820D01*
X208694340Y-137254220D01*
X208681640Y-137145000D01*
X208694340Y-137035780D01*
X208734980Y-136929100D01*
X208798480Y-136837660D01*
X208882300Y-136761460D01*
X208981360Y-136710660D01*
X209088040Y-136682720D01*
X209199800Y-136680180D01*
X209309020Y-136705580D01*
X209408080Y-136756380D01*
X209494440Y-136830040D01*
X209557940Y-136921480D01*
X209601120Y-137025620D01*
X209616360Y-137134840D01*
X209606200Y-137244060D01*
X209568100Y-137350740D01*
X209507140Y-137444720D01*
X209425860Y-137520920D01*
X209326800Y-137576800D01*
X209542700Y-138097500D01*
G37*
X209542700Y-138097500D02*
X209695100Y-138018760D01*
X210071020Y-138326100D01*
X210330100Y-138067020D01*
X210022760Y-137691100D01*
X210101500Y-137538700D01*
X210152300Y-137376140D01*
X210637440Y-137325340D01*
X210637440Y-136964660D01*
X210152300Y-136913860D01*
X210101500Y-136751300D01*
X210022760Y-136598900D01*
X210330100Y-136222980D01*
X210071020Y-135963900D01*
X209695100Y-136271240D01*
X209542700Y-136192500D01*
X209380140Y-136141700D01*
X209329340Y-135656560D01*
X208968660Y-135656560D01*
X208917860Y-136141700D01*
X208755300Y-136192500D01*
X208602900Y-136271240D01*
X208226980Y-135963900D01*
X207967900Y-136222980D01*
X208275240Y-136598900D01*
X208196500Y-136751300D01*
X208145700Y-136913860D01*
X207660560Y-136964660D01*
X207660560Y-137325340D01*
X208145700Y-137376140D01*
X208196500Y-137538700D01*
X208275240Y-137691100D01*
X207967900Y-138067020D01*
X208226980Y-138326100D01*
X208602900Y-138018760D01*
X208755300Y-138097500D01*
X208971200Y-137576800D01*
X208874680Y-137523460D01*
X208793400Y-137447260D01*
X208732440Y-137355820D01*
X208694340Y-137254220D01*
X208681640Y-137145000D01*
X208694340Y-137035780D01*
X208734980Y-136929100D01*
X208798480Y-136837660D01*
X208882300Y-136761460D01*
X208981360Y-136710660D01*
X209088040Y-136682720D01*
X209199800Y-136680180D01*
X209309020Y-136705580D01*
X209408080Y-136756380D01*
X209494440Y-136830040D01*
X209557940Y-136921480D01*
X209601120Y-137025620D01*
X209616360Y-137134840D01*
X209606200Y-137244060D01*
X209568100Y-137350740D01*
X209507140Y-137444720D01*
X209425860Y-137520920D01*
X209326800Y-137576800D01*
X209542700Y-138097500D01*
D16*
X189554714Y-120101599D02*
X189583743Y-120130628D01*
X189612771Y-120217714D01*
X189612771Y-120275771D01*
X189583743Y-120362856D01*
X189525686Y-120420914D01*
X189467629Y-120449942D01*
X189351514Y-120478971D01*
X189264429Y-120478971D01*
X189148314Y-120449942D01*
X189090257Y-120420914D01*
X189032200Y-120362856D01*
X189003171Y-120275771D01*
X189003171Y-120217714D01*
X189032200Y-120130628D01*
X189061229Y-120101599D01*
X189612771Y-119521028D02*
X189612771Y-119869371D01*
X189612771Y-119695199D02*
X189003171Y-119695199D01*
X189090257Y-119753256D01*
X189148314Y-119811314D01*
X189177343Y-119869371D01*
X191840714Y-115021599D02*
X191869743Y-115050628D01*
X191898771Y-115137714D01*
X191898771Y-115195771D01*
X191869743Y-115282856D01*
X191811686Y-115340914D01*
X191753629Y-115369942D01*
X191637514Y-115398971D01*
X191550429Y-115398971D01*
X191434314Y-115369942D01*
X191376257Y-115340914D01*
X191318200Y-115282856D01*
X191289171Y-115195771D01*
X191289171Y-115137714D01*
X191318200Y-115050628D01*
X191347229Y-115021599D01*
X191347229Y-114789371D02*
X191318200Y-114760342D01*
X191289171Y-114702285D01*
X191289171Y-114557142D01*
X191318200Y-114499085D01*
X191347229Y-114470056D01*
X191405286Y-114441028D01*
X191463343Y-114441028D01*
X191550429Y-114470056D01*
X191898771Y-114818399D01*
X191898771Y-114441028D01*
X186887714Y-125181599D02*
X186916743Y-125210628D01*
X186945771Y-125297714D01*
X186945771Y-125355771D01*
X186916743Y-125442856D01*
X186858686Y-125500914D01*
X186800629Y-125529942D01*
X186684514Y-125558971D01*
X186597429Y-125558971D01*
X186481314Y-125529942D01*
X186423257Y-125500914D01*
X186365200Y-125442856D01*
X186336171Y-125355771D01*
X186336171Y-125297714D01*
X186365200Y-125210628D01*
X186394229Y-125181599D01*
X186336171Y-124978399D02*
X186336171Y-124601028D01*
X186568400Y-124804228D01*
X186568400Y-124717142D01*
X186597429Y-124659085D01*
X186626457Y-124630056D01*
X186684514Y-124601028D01*
X186829657Y-124601028D01*
X186887714Y-124630056D01*
X186916743Y-124659085D01*
X186945771Y-124717142D01*
X186945771Y-124891314D01*
X186916743Y-124949371D01*
X186887714Y-124978399D01*
X181996401Y-124916714D02*
X181967372Y-124945743D01*
X181880286Y-124974771D01*
X181822229Y-124974771D01*
X181735144Y-124945743D01*
X181677086Y-124887686D01*
X181648058Y-124829629D01*
X181619029Y-124713514D01*
X181619029Y-124626429D01*
X181648058Y-124510314D01*
X181677086Y-124452257D01*
X181735144Y-124394200D01*
X181822229Y-124365171D01*
X181880286Y-124365171D01*
X181967372Y-124394200D01*
X181996401Y-124423229D01*
X182518915Y-124568371D02*
X182518915Y-124974771D01*
X182373772Y-124336143D02*
X182228629Y-124771571D01*
X182606001Y-124771571D01*
X181717001Y-113098457D02*
X181513801Y-113098457D01*
X181513801Y-113417771D02*
X181513801Y-112808171D01*
X181804087Y-112808171D01*
X182239515Y-113098457D02*
X182326601Y-113127486D01*
X182355629Y-113156514D01*
X182384658Y-113214571D01*
X182384658Y-113301657D01*
X182355629Y-113359714D01*
X182326601Y-113388743D01*
X182268543Y-113417771D01*
X182036315Y-113417771D01*
X182036315Y-112808171D01*
X182239515Y-112808171D01*
X182297572Y-112837200D01*
X182326601Y-112866229D01*
X182355629Y-112924286D01*
X182355629Y-112982343D01*
X182326601Y-113040400D01*
X182297572Y-113069429D01*
X182239515Y-113098457D01*
X182036315Y-113098457D01*
X182965229Y-113417771D02*
X182616886Y-113417771D01*
X182791058Y-113417771D02*
X182791058Y-112808171D01*
X182733001Y-112895257D01*
X182674943Y-112953314D01*
X182616886Y-112982343D01*
X184340457Y-116697999D02*
X184340457Y-116901199D01*
X184659771Y-116901199D02*
X184050171Y-116901199D01*
X184050171Y-116610913D01*
X184340457Y-116175485D02*
X184369486Y-116088399D01*
X184398514Y-116059371D01*
X184456571Y-116030342D01*
X184543657Y-116030342D01*
X184601714Y-116059371D01*
X184630743Y-116088399D01*
X184659771Y-116146457D01*
X184659771Y-116378685D01*
X184050171Y-116378685D01*
X184050171Y-116175485D01*
X184079200Y-116117428D01*
X184108229Y-116088399D01*
X184166286Y-116059371D01*
X184224343Y-116059371D01*
X184282400Y-116088399D01*
X184311429Y-116117428D01*
X184340457Y-116175485D01*
X184340457Y-116378685D01*
X184108229Y-115798114D02*
X184079200Y-115769085D01*
X184050171Y-115711028D01*
X184050171Y-115565885D01*
X184079200Y-115507828D01*
X184108229Y-115478799D01*
X184166286Y-115449771D01*
X184224343Y-115449771D01*
X184311429Y-115478799D01*
X184659771Y-115827142D01*
X184659771Y-115449771D01*
X114076800Y-124746171D02*
X114076800Y-125181600D01*
X114047772Y-125268686D01*
X113989715Y-125326743D01*
X113902629Y-125355771D01*
X113844572Y-125355771D01*
X114686400Y-125355771D02*
X114338057Y-125355771D01*
X114512229Y-125355771D02*
X114512229Y-124746171D01*
X114454172Y-124833257D01*
X114396114Y-124891314D01*
X114338057Y-124920343D01*
X114076800Y-106966171D02*
X114076800Y-107401600D01*
X114047772Y-107488686D01*
X113989715Y-107546743D01*
X113902629Y-107575771D01*
X113844572Y-107575771D01*
X114338057Y-107024229D02*
X114367086Y-106995200D01*
X114425143Y-106966171D01*
X114570286Y-106966171D01*
X114628343Y-106995200D01*
X114657372Y-107024229D01*
X114686400Y-107082286D01*
X114686400Y-107140343D01*
X114657372Y-107227429D01*
X114309029Y-107575771D01*
X114686400Y-107575771D01*
X203121943Y-131255829D02*
X203063886Y-131226800D01*
X203005829Y-131168743D01*
X202918743Y-131081657D01*
X202860686Y-131052629D01*
X202802629Y-131052629D01*
X202831657Y-131197771D02*
X202773600Y-131168743D01*
X202715543Y-131110686D01*
X202686514Y-130994571D01*
X202686514Y-130791371D01*
X202715543Y-130675257D01*
X202773600Y-130617200D01*
X202831657Y-130588171D01*
X202947771Y-130588171D01*
X203005829Y-130617200D01*
X203063886Y-130675257D01*
X203092914Y-130791371D01*
X203092914Y-130994571D01*
X203063886Y-131110686D01*
X203005829Y-131168743D01*
X202947771Y-131197771D01*
X202831657Y-131197771D01*
X203673486Y-131197771D02*
X203325143Y-131197771D01*
X203499315Y-131197771D02*
X203499315Y-130588171D01*
X203441258Y-130675257D01*
X203383200Y-130733314D01*
X203325143Y-130762343D01*
X208201943Y-131255829D02*
X208143886Y-131226800D01*
X208085829Y-131168743D01*
X207998743Y-131081657D01*
X207940686Y-131052629D01*
X207882629Y-131052629D01*
X207911657Y-131197771D02*
X207853600Y-131168743D01*
X207795543Y-131110686D01*
X207766514Y-130994571D01*
X207766514Y-130791371D01*
X207795543Y-130675257D01*
X207853600Y-130617200D01*
X207911657Y-130588171D01*
X208027771Y-130588171D01*
X208085829Y-130617200D01*
X208143886Y-130675257D01*
X208172914Y-130791371D01*
X208172914Y-130994571D01*
X208143886Y-131110686D01*
X208085829Y-131168743D01*
X208027771Y-131197771D01*
X207911657Y-131197771D01*
X208405143Y-130646229D02*
X208434172Y-130617200D01*
X208492229Y-130588171D01*
X208637372Y-130588171D01*
X208695429Y-130617200D01*
X208724458Y-130646229D01*
X208753486Y-130704286D01*
X208753486Y-130762343D01*
X208724458Y-130849429D01*
X208376115Y-131197771D01*
X208753486Y-131197771D01*
X208201943Y-105728829D02*
X208143886Y-105699800D01*
X208085829Y-105641743D01*
X207998743Y-105554657D01*
X207940686Y-105525629D01*
X207882629Y-105525629D01*
X207911657Y-105670771D02*
X207853600Y-105641743D01*
X207795543Y-105583686D01*
X207766514Y-105467571D01*
X207766514Y-105264371D01*
X207795543Y-105148257D01*
X207853600Y-105090200D01*
X207911657Y-105061171D01*
X208027771Y-105061171D01*
X208085829Y-105090200D01*
X208143886Y-105148257D01*
X208172914Y-105264371D01*
X208172914Y-105467571D01*
X208143886Y-105583686D01*
X208085829Y-105641743D01*
X208027771Y-105670771D01*
X207911657Y-105670771D01*
X208376115Y-105061171D02*
X208753486Y-105061171D01*
X208550286Y-105293400D01*
X208637372Y-105293400D01*
X208695429Y-105322429D01*
X208724458Y-105351457D01*
X208753486Y-105409514D01*
X208753486Y-105554657D01*
X208724458Y-105612714D01*
X208695429Y-105641743D01*
X208637372Y-105670771D01*
X208463200Y-105670771D01*
X208405143Y-105641743D01*
X208376115Y-105612714D01*
X203121943Y-105728829D02*
X203063886Y-105699800D01*
X203005829Y-105641743D01*
X202918743Y-105554657D01*
X202860686Y-105525629D01*
X202802629Y-105525629D01*
X202831657Y-105670771D02*
X202773600Y-105641743D01*
X202715543Y-105583686D01*
X202686514Y-105467571D01*
X202686514Y-105264371D01*
X202715543Y-105148257D01*
X202773600Y-105090200D01*
X202831657Y-105061171D01*
X202947771Y-105061171D01*
X203005829Y-105090200D01*
X203063886Y-105148257D01*
X203092914Y-105264371D01*
X203092914Y-105467571D01*
X203063886Y-105583686D01*
X203005829Y-105641743D01*
X202947771Y-105670771D01*
X202831657Y-105670771D01*
X203615429Y-105264371D02*
X203615429Y-105670771D01*
X203470286Y-105032143D02*
X203325143Y-105467571D01*
X203702515Y-105467571D01*
X191648401Y-122307771D02*
X191445201Y-122017486D01*
X191300058Y-122307771D02*
X191300058Y-121698171D01*
X191532286Y-121698171D01*
X191590344Y-121727200D01*
X191619372Y-121756229D01*
X191648401Y-121814286D01*
X191648401Y-121901371D01*
X191619372Y-121959429D01*
X191590344Y-121988457D01*
X191532286Y-122017486D01*
X191300058Y-122017486D01*
X192228972Y-122307771D02*
X191880629Y-122307771D01*
X192054801Y-122307771D02*
X192054801Y-121698171D01*
X191996744Y-121785257D01*
X191938686Y-121843314D01*
X191880629Y-121872343D01*
X192152771Y-120101599D02*
X191862486Y-120304799D01*
X192152771Y-120449942D02*
X191543171Y-120449942D01*
X191543171Y-120217714D01*
X191572200Y-120159656D01*
X191601229Y-120130628D01*
X191659286Y-120101599D01*
X191746371Y-120101599D01*
X191804429Y-120130628D01*
X191833457Y-120159656D01*
X191862486Y-120217714D01*
X191862486Y-120449942D01*
X191601229Y-119869371D02*
X191572200Y-119840342D01*
X191543171Y-119782285D01*
X191543171Y-119637142D01*
X191572200Y-119579085D01*
X191601229Y-119550056D01*
X191659286Y-119521028D01*
X191717343Y-119521028D01*
X191804429Y-119550056D01*
X192152771Y-119898399D01*
X192152771Y-119521028D01*
X186568401Y-113417771D02*
X186365201Y-113127486D01*
X186220058Y-113417771D02*
X186220058Y-112808171D01*
X186452286Y-112808171D01*
X186510344Y-112837200D01*
X186539372Y-112866229D01*
X186568401Y-112924286D01*
X186568401Y-113011371D01*
X186539372Y-113069429D01*
X186510344Y-113098457D01*
X186452286Y-113127486D01*
X186220058Y-113127486D01*
X186771601Y-112808171D02*
X187148972Y-112808171D01*
X186945772Y-113040400D01*
X187032858Y-113040400D01*
X187090915Y-113069429D01*
X187119944Y-113098457D01*
X187148972Y-113156514D01*
X187148972Y-113301657D01*
X187119944Y-113359714D01*
X187090915Y-113388743D01*
X187032858Y-113417771D01*
X186858686Y-113417771D01*
X186800629Y-113388743D01*
X186771601Y-113359714D01*
X184532771Y-125181599D02*
X184242486Y-125384799D01*
X184532771Y-125529942D02*
X183923171Y-125529942D01*
X183923171Y-125297714D01*
X183952200Y-125239656D01*
X183981229Y-125210628D01*
X184039286Y-125181599D01*
X184126371Y-125181599D01*
X184184429Y-125210628D01*
X184213457Y-125239656D01*
X184242486Y-125297714D01*
X184242486Y-125529942D01*
X184126371Y-124659085D02*
X184532771Y-124659085D01*
X183894143Y-124804228D02*
X184329571Y-124949371D01*
X184329571Y-124571999D01*
X188977771Y-116291599D02*
X188687486Y-116494799D01*
X188977771Y-116639942D02*
X188368171Y-116639942D01*
X188368171Y-116407714D01*
X188397200Y-116349656D01*
X188426229Y-116320628D01*
X188484286Y-116291599D01*
X188571371Y-116291599D01*
X188629429Y-116320628D01*
X188658457Y-116349656D01*
X188687486Y-116407714D01*
X188687486Y-116639942D01*
X188368171Y-115740056D02*
X188368171Y-116030342D01*
X188658457Y-116059371D01*
X188629429Y-116030342D01*
X188600400Y-115972285D01*
X188600400Y-115827142D01*
X188629429Y-115769085D01*
X188658457Y-115740056D01*
X188716514Y-115711028D01*
X188861657Y-115711028D01*
X188919714Y-115740056D01*
X188948743Y-115769085D01*
X188977771Y-115827142D01*
X188977771Y-115972285D01*
X188948743Y-116030342D01*
X188919714Y-116059371D01*
X184659771Y-118196599D02*
X184369486Y-118399799D01*
X184659771Y-118544942D02*
X184050171Y-118544942D01*
X184050171Y-118312714D01*
X184079200Y-118254656D01*
X184108229Y-118225628D01*
X184166286Y-118196599D01*
X184253371Y-118196599D01*
X184311429Y-118225628D01*
X184340457Y-118254656D01*
X184369486Y-118312714D01*
X184369486Y-118544942D01*
X184050171Y-117674085D02*
X184050171Y-117790199D01*
X184079200Y-117848256D01*
X184108229Y-117877285D01*
X184195314Y-117935342D01*
X184311429Y-117964371D01*
X184543657Y-117964371D01*
X184601714Y-117935342D01*
X184630743Y-117906314D01*
X184659771Y-117848256D01*
X184659771Y-117732142D01*
X184630743Y-117674085D01*
X184601714Y-117645056D01*
X184543657Y-117616028D01*
X184398514Y-117616028D01*
X184340457Y-117645056D01*
X184311429Y-117674085D01*
X184282400Y-117732142D01*
X184282400Y-117848256D01*
X184311429Y-117906314D01*
X184340457Y-117935342D01*
X184398514Y-117964371D01*
X115825771Y-104861599D02*
X115535486Y-105064799D01*
X115825771Y-105209942D02*
X115216171Y-105209942D01*
X115216171Y-104977714D01*
X115245200Y-104919656D01*
X115274229Y-104890628D01*
X115332286Y-104861599D01*
X115419371Y-104861599D01*
X115477429Y-104890628D01*
X115506457Y-104919656D01*
X115535486Y-104977714D01*
X115535486Y-105209942D01*
X115216171Y-104658399D02*
X115216171Y-104251999D01*
X115825771Y-104513256D01*
X198375771Y-112481599D02*
X198085486Y-112684799D01*
X198375771Y-112829942D02*
X197766171Y-112829942D01*
X197766171Y-112597714D01*
X197795200Y-112539656D01*
X197824229Y-112510628D01*
X197882286Y-112481599D01*
X197969371Y-112481599D01*
X198027429Y-112510628D01*
X198056457Y-112539656D01*
X198085486Y-112597714D01*
X198085486Y-112829942D01*
X198027429Y-112133256D02*
X197998400Y-112191314D01*
X197969371Y-112220342D01*
X197911314Y-112249371D01*
X197882286Y-112249371D01*
X197824229Y-112220342D01*
X197795200Y-112191314D01*
X197766171Y-112133256D01*
X197766171Y-112017142D01*
X197795200Y-111959085D01*
X197824229Y-111930056D01*
X197882286Y-111901028D01*
X197911314Y-111901028D01*
X197969371Y-111930056D01*
X197998400Y-111959085D01*
X198027429Y-112017142D01*
X198027429Y-112133256D01*
X198056457Y-112191314D01*
X198085486Y-112220342D01*
X198143543Y-112249371D01*
X198259657Y-112249371D01*
X198317714Y-112220342D01*
X198346743Y-112191314D01*
X198375771Y-112133256D01*
X198375771Y-112017142D01*
X198346743Y-111959085D01*
X198317714Y-111930056D01*
X198259657Y-111901028D01*
X198143543Y-111901028D01*
X198085486Y-111930056D01*
X198056457Y-111959085D01*
X198027429Y-112017142D01*
X205995771Y-127721599D02*
X205705486Y-127924799D01*
X205995771Y-128069942D02*
X205386171Y-128069942D01*
X205386171Y-127837714D01*
X205415200Y-127779656D01*
X205444229Y-127750628D01*
X205502286Y-127721599D01*
X205589371Y-127721599D01*
X205647429Y-127750628D01*
X205676457Y-127779656D01*
X205705486Y-127837714D01*
X205705486Y-128069942D01*
X205995771Y-127431314D02*
X205995771Y-127315199D01*
X205966743Y-127257142D01*
X205937714Y-127228114D01*
X205850629Y-127170056D01*
X205734514Y-127141028D01*
X205502286Y-127141028D01*
X205444229Y-127170056D01*
X205415200Y-127199085D01*
X205386171Y-127257142D01*
X205386171Y-127373256D01*
X205415200Y-127431314D01*
X205444229Y-127460342D01*
X205502286Y-127489371D01*
X205647429Y-127489371D01*
X205705486Y-127460342D01*
X205734514Y-127431314D01*
X205763543Y-127373256D01*
X205763543Y-127257142D01*
X205734514Y-127199085D01*
X205705486Y-127170056D01*
X205647429Y-127141028D01*
X208535771Y-128011885D02*
X208245486Y-128215085D01*
X208535771Y-128360228D02*
X207926171Y-128360228D01*
X207926171Y-128128000D01*
X207955200Y-128069942D01*
X207984229Y-128040914D01*
X208042286Y-128011885D01*
X208129371Y-128011885D01*
X208187429Y-128040914D01*
X208216457Y-128069942D01*
X208245486Y-128128000D01*
X208245486Y-128360228D01*
X208535771Y-127431314D02*
X208535771Y-127779657D01*
X208535771Y-127605485D02*
X207926171Y-127605485D01*
X208013257Y-127663542D01*
X208071314Y-127721600D01*
X208100343Y-127779657D01*
X207926171Y-127053943D02*
X207926171Y-126995886D01*
X207955200Y-126937829D01*
X207984229Y-126908800D01*
X208042286Y-126879771D01*
X208158400Y-126850743D01*
X208303543Y-126850743D01*
X208419657Y-126879771D01*
X208477714Y-126908800D01*
X208506743Y-126937829D01*
X208535771Y-126995886D01*
X208535771Y-127053943D01*
X208506743Y-127112000D01*
X208477714Y-127141029D01*
X208419657Y-127170057D01*
X208303543Y-127199086D01*
X208158400Y-127199086D01*
X208042286Y-127170057D01*
X207984229Y-127141029D01*
X207955200Y-127112000D01*
X207926171Y-127053943D01*
X211075771Y-128011885D02*
X210785486Y-128215085D01*
X211075771Y-128360228D02*
X210466171Y-128360228D01*
X210466171Y-128128000D01*
X210495200Y-128069942D01*
X210524229Y-128040914D01*
X210582286Y-128011885D01*
X210669371Y-128011885D01*
X210727429Y-128040914D01*
X210756457Y-128069942D01*
X210785486Y-128128000D01*
X210785486Y-128360228D01*
X211075771Y-127431314D02*
X211075771Y-127779657D01*
X211075771Y-127605485D02*
X210466171Y-127605485D01*
X210553257Y-127663542D01*
X210611314Y-127721600D01*
X210640343Y-127779657D01*
X211075771Y-126850743D02*
X211075771Y-127199086D01*
X211075771Y-127024914D02*
X210466171Y-127024914D01*
X210553257Y-127082971D01*
X210611314Y-127141029D01*
X210640343Y-127199086D01*
X203455771Y-128011885D02*
X203165486Y-128215085D01*
X203455771Y-128360228D02*
X202846171Y-128360228D01*
X202846171Y-128128000D01*
X202875200Y-128069942D01*
X202904229Y-128040914D01*
X202962286Y-128011885D01*
X203049371Y-128011885D01*
X203107429Y-128040914D01*
X203136457Y-128069942D01*
X203165486Y-128128000D01*
X203165486Y-128360228D01*
X203455771Y-127431314D02*
X203455771Y-127779657D01*
X203455771Y-127605485D02*
X202846171Y-127605485D01*
X202933257Y-127663542D01*
X202991314Y-127721600D01*
X203020343Y-127779657D01*
X202904229Y-127199086D02*
X202875200Y-127170057D01*
X202846171Y-127112000D01*
X202846171Y-126966857D01*
X202875200Y-126908800D01*
X202904229Y-126879771D01*
X202962286Y-126850743D01*
X203020343Y-126850743D01*
X203107429Y-126879771D01*
X203455771Y-127228114D01*
X203455771Y-126850743D01*
X208535771Y-112771885D02*
X208245486Y-112975085D01*
X208535771Y-113120228D02*
X207926171Y-113120228D01*
X207926171Y-112888000D01*
X207955200Y-112829942D01*
X207984229Y-112800914D01*
X208042286Y-112771885D01*
X208129371Y-112771885D01*
X208187429Y-112800914D01*
X208216457Y-112829942D01*
X208245486Y-112888000D01*
X208245486Y-113120228D01*
X208535771Y-112191314D02*
X208535771Y-112539657D01*
X208535771Y-112365485D02*
X207926171Y-112365485D01*
X208013257Y-112423542D01*
X208071314Y-112481600D01*
X208100343Y-112539657D01*
X207926171Y-111988114D02*
X207926171Y-111610743D01*
X208158400Y-111813943D01*
X208158400Y-111726857D01*
X208187429Y-111668800D01*
X208216457Y-111639771D01*
X208274514Y-111610743D01*
X208419657Y-111610743D01*
X208477714Y-111639771D01*
X208506743Y-111668800D01*
X208535771Y-111726857D01*
X208535771Y-111901029D01*
X208506743Y-111959086D01*
X208477714Y-111988114D01*
X200915771Y-112771885D02*
X200625486Y-112975085D01*
X200915771Y-113120228D02*
X200306171Y-113120228D01*
X200306171Y-112888000D01*
X200335200Y-112829942D01*
X200364229Y-112800914D01*
X200422286Y-112771885D01*
X200509371Y-112771885D01*
X200567429Y-112800914D01*
X200596457Y-112829942D01*
X200625486Y-112888000D01*
X200625486Y-113120228D01*
X200915771Y-112191314D02*
X200915771Y-112539657D01*
X200915771Y-112365485D02*
X200306171Y-112365485D01*
X200393257Y-112423542D01*
X200451314Y-112481600D01*
X200480343Y-112539657D01*
X200509371Y-111668800D02*
X200915771Y-111668800D01*
X200277143Y-111813943D02*
X200712571Y-111959086D01*
X200712571Y-111581714D01*
X205995771Y-112771885D02*
X205705486Y-112975085D01*
X205995771Y-113120228D02*
X205386171Y-113120228D01*
X205386171Y-112888000D01*
X205415200Y-112829942D01*
X205444229Y-112800914D01*
X205502286Y-112771885D01*
X205589371Y-112771885D01*
X205647429Y-112800914D01*
X205676457Y-112829942D01*
X205705486Y-112888000D01*
X205705486Y-113120228D01*
X205995771Y-112191314D02*
X205995771Y-112539657D01*
X205995771Y-112365485D02*
X205386171Y-112365485D01*
X205473257Y-112423542D01*
X205531314Y-112481600D01*
X205560343Y-112539657D01*
X205386171Y-111639771D02*
X205386171Y-111930057D01*
X205676457Y-111959086D01*
X205647429Y-111930057D01*
X205618400Y-111872000D01*
X205618400Y-111726857D01*
X205647429Y-111668800D01*
X205676457Y-111639771D01*
X205734514Y-111610743D01*
X205879657Y-111610743D01*
X205937714Y-111639771D01*
X205966743Y-111668800D01*
X205995771Y-111726857D01*
X205995771Y-111872000D01*
X205966743Y-111930057D01*
X205937714Y-111959086D01*
X203455771Y-112771885D02*
X203165486Y-112975085D01*
X203455771Y-113120228D02*
X202846171Y-113120228D01*
X202846171Y-112888000D01*
X202875200Y-112829942D01*
X202904229Y-112800914D01*
X202962286Y-112771885D01*
X203049371Y-112771885D01*
X203107429Y-112800914D01*
X203136457Y-112829942D01*
X203165486Y-112888000D01*
X203165486Y-113120228D01*
X203455771Y-112191314D02*
X203455771Y-112539657D01*
X203455771Y-112365485D02*
X202846171Y-112365485D01*
X202933257Y-112423542D01*
X202991314Y-112481600D01*
X203020343Y-112539657D01*
X202846171Y-111668800D02*
X202846171Y-111784914D01*
X202875200Y-111842971D01*
X202904229Y-111872000D01*
X202991314Y-111930057D01*
X203107429Y-111959086D01*
X203339657Y-111959086D01*
X203397714Y-111930057D01*
X203426743Y-111901029D01*
X203455771Y-111842971D01*
X203455771Y-111726857D01*
X203426743Y-111668800D01*
X203397714Y-111639771D01*
X203339657Y-111610743D01*
X203194514Y-111610743D01*
X203136457Y-111639771D01*
X203107429Y-111668800D01*
X203078400Y-111726857D01*
X203078400Y-111842971D01*
X203107429Y-111901029D01*
X203136457Y-111930057D01*
X203194514Y-111959086D01*
X108808115Y-114052771D02*
X108604915Y-113762486D01*
X108459772Y-114052771D02*
X108459772Y-113443171D01*
X108692000Y-113443171D01*
X108750058Y-113472200D01*
X108779086Y-113501229D01*
X108808115Y-113559286D01*
X108808115Y-113646371D01*
X108779086Y-113704429D01*
X108750058Y-113733457D01*
X108692000Y-113762486D01*
X108459772Y-113762486D01*
X109388686Y-114052771D02*
X109040343Y-114052771D01*
X109214515Y-114052771D02*
X109214515Y-113443171D01*
X109156458Y-113530257D01*
X109098400Y-113588314D01*
X109040343Y-113617343D01*
X109591886Y-113443171D02*
X109998286Y-113443171D01*
X109737029Y-114052771D01*
X108808115Y-116592771D02*
X108604915Y-116302486D01*
X108459772Y-116592771D02*
X108459772Y-115983171D01*
X108692000Y-115983171D01*
X108750058Y-116012200D01*
X108779086Y-116041229D01*
X108808115Y-116099286D01*
X108808115Y-116186371D01*
X108779086Y-116244429D01*
X108750058Y-116273457D01*
X108692000Y-116302486D01*
X108459772Y-116302486D01*
X109388686Y-116592771D02*
X109040343Y-116592771D01*
X109214515Y-116592771D02*
X109214515Y-115983171D01*
X109156458Y-116070257D01*
X109098400Y-116128314D01*
X109040343Y-116157343D01*
X109737029Y-116244429D02*
X109678971Y-116215400D01*
X109649943Y-116186371D01*
X109620914Y-116128314D01*
X109620914Y-116099286D01*
X109649943Y-116041229D01*
X109678971Y-116012200D01*
X109737029Y-115983171D01*
X109853143Y-115983171D01*
X109911200Y-116012200D01*
X109940229Y-116041229D01*
X109969257Y-116099286D01*
X109969257Y-116128314D01*
X109940229Y-116186371D01*
X109911200Y-116215400D01*
X109853143Y-116244429D01*
X109737029Y-116244429D01*
X109678971Y-116273457D01*
X109649943Y-116302486D01*
X109620914Y-116360543D01*
X109620914Y-116476657D01*
X109649943Y-116534714D01*
X109678971Y-116563743D01*
X109737029Y-116592771D01*
X109853143Y-116592771D01*
X109911200Y-116563743D01*
X109940229Y-116534714D01*
X109969257Y-116476657D01*
X109969257Y-116360543D01*
X109940229Y-116302486D01*
X109911200Y-116273457D01*
X109853143Y-116244429D01*
X108808115Y-124212771D02*
X108604915Y-123922486D01*
X108459772Y-124212771D02*
X108459772Y-123603171D01*
X108692000Y-123603171D01*
X108750058Y-123632200D01*
X108779086Y-123661229D01*
X108808115Y-123719286D01*
X108808115Y-123806371D01*
X108779086Y-123864429D01*
X108750058Y-123893457D01*
X108692000Y-123922486D01*
X108459772Y-123922486D01*
X109388686Y-124212771D02*
X109040343Y-124212771D01*
X109214515Y-124212771D02*
X109214515Y-123603171D01*
X109156458Y-123690257D01*
X109098400Y-123748314D01*
X109040343Y-123777343D01*
X109678971Y-124212771D02*
X109795086Y-124212771D01*
X109853143Y-124183743D01*
X109882171Y-124154714D01*
X109940229Y-124067629D01*
X109969257Y-123951514D01*
X109969257Y-123719286D01*
X109940229Y-123661229D01*
X109911200Y-123632200D01*
X109853143Y-123603171D01*
X109737029Y-123603171D01*
X109678971Y-123632200D01*
X109649943Y-123661229D01*
X109620914Y-123719286D01*
X109620914Y-123864429D01*
X109649943Y-123922486D01*
X109678971Y-123951514D01*
X109737029Y-123980543D01*
X109853143Y-123980543D01*
X109911200Y-123951514D01*
X109940229Y-123922486D01*
X109969257Y-123864429D01*
X108808115Y-121672771D02*
X108604915Y-121382486D01*
X108459772Y-121672771D02*
X108459772Y-121063171D01*
X108692000Y-121063171D01*
X108750058Y-121092200D01*
X108779086Y-121121229D01*
X108808115Y-121179286D01*
X108808115Y-121266371D01*
X108779086Y-121324429D01*
X108750058Y-121353457D01*
X108692000Y-121382486D01*
X108459772Y-121382486D01*
X109040343Y-121121229D02*
X109069372Y-121092200D01*
X109127429Y-121063171D01*
X109272572Y-121063171D01*
X109330629Y-121092200D01*
X109359658Y-121121229D01*
X109388686Y-121179286D01*
X109388686Y-121237343D01*
X109359658Y-121324429D01*
X109011315Y-121672771D01*
X109388686Y-121672771D01*
X109766057Y-121063171D02*
X109824114Y-121063171D01*
X109882171Y-121092200D01*
X109911200Y-121121229D01*
X109940229Y-121179286D01*
X109969257Y-121295400D01*
X109969257Y-121440543D01*
X109940229Y-121556657D01*
X109911200Y-121614714D01*
X109882171Y-121643743D01*
X109824114Y-121672771D01*
X109766057Y-121672771D01*
X109708000Y-121643743D01*
X109678971Y-121614714D01*
X109649943Y-121556657D01*
X109620914Y-121440543D01*
X109620914Y-121295400D01*
X109649943Y-121179286D01*
X109678971Y-121121229D01*
X109708000Y-121092200D01*
X109766057Y-121063171D01*
X108808115Y-119132771D02*
X108604915Y-118842486D01*
X108459772Y-119132771D02*
X108459772Y-118523171D01*
X108692000Y-118523171D01*
X108750058Y-118552200D01*
X108779086Y-118581229D01*
X108808115Y-118639286D01*
X108808115Y-118726371D01*
X108779086Y-118784429D01*
X108750058Y-118813457D01*
X108692000Y-118842486D01*
X108459772Y-118842486D01*
X109040343Y-118581229D02*
X109069372Y-118552200D01*
X109127429Y-118523171D01*
X109272572Y-118523171D01*
X109330629Y-118552200D01*
X109359658Y-118581229D01*
X109388686Y-118639286D01*
X109388686Y-118697343D01*
X109359658Y-118784429D01*
X109011315Y-119132771D01*
X109388686Y-119132771D01*
X109969257Y-119132771D02*
X109620914Y-119132771D01*
X109795086Y-119132771D02*
X109795086Y-118523171D01*
X109737029Y-118610257D01*
X109678971Y-118668314D01*
X109620914Y-118697343D01*
X121435543Y-102974743D02*
X121522629Y-103003771D01*
X121667772Y-103003771D01*
X121725829Y-102974743D01*
X121754858Y-102945714D01*
X121783886Y-102887657D01*
X121783886Y-102829600D01*
X121754858Y-102771543D01*
X121725829Y-102742514D01*
X121667772Y-102713486D01*
X121551658Y-102684457D01*
X121493600Y-102655429D01*
X121464572Y-102626400D01*
X121435543Y-102568343D01*
X121435543Y-102510286D01*
X121464572Y-102452229D01*
X121493600Y-102423200D01*
X121551658Y-102394171D01*
X121696800Y-102394171D01*
X121783886Y-102423200D01*
X122364457Y-103003771D02*
X122016114Y-103003771D01*
X122190286Y-103003771D02*
X122190286Y-102394171D01*
X122132229Y-102481257D01*
X122074171Y-102539314D01*
X122016114Y-102568343D01*
X187987171Y-120464457D02*
X188480657Y-120464457D01*
X188538714Y-120435429D01*
X188567743Y-120406400D01*
X188596771Y-120348343D01*
X188596771Y-120232229D01*
X188567743Y-120174171D01*
X188538714Y-120145143D01*
X188480657Y-120116114D01*
X187987171Y-120116114D01*
X188596771Y-119506514D02*
X188596771Y-119854857D01*
X188596771Y-119680685D02*
X187987171Y-119680685D01*
X188074257Y-119738742D01*
X188132314Y-119796800D01*
X188161343Y-119854857D01*
X210974171Y-123004457D02*
X211467657Y-123004457D01*
X211525714Y-122975429D01*
X211554743Y-122946400D01*
X211583771Y-122888343D01*
X211583771Y-122772229D01*
X211554743Y-122714171D01*
X211525714Y-122685143D01*
X211467657Y-122656114D01*
X210974171Y-122656114D01*
X211032229Y-122394857D02*
X211003200Y-122365828D01*
X210974171Y-122307771D01*
X210974171Y-122162628D01*
X211003200Y-122104571D01*
X211032229Y-122075542D01*
X211090286Y-122046514D01*
X211148343Y-122046514D01*
X211235429Y-122075542D01*
X211583771Y-122423885D01*
X211583771Y-122046514D01*
X184177171Y-122068285D02*
X184786771Y-121865085D01*
X184177171Y-121661885D01*
X184786771Y-121110342D02*
X184496486Y-121313542D01*
X184786771Y-121458685D02*
X184177171Y-121458685D01*
X184177171Y-121226457D01*
X184206200Y-121168399D01*
X184235229Y-121139371D01*
X184293286Y-121110342D01*
X184380371Y-121110342D01*
X184438429Y-121139371D01*
X184467457Y-121168399D01*
X184496486Y-121226457D01*
X184496486Y-121458685D01*
X184786771Y-120529771D02*
X184786771Y-120878114D01*
X184786771Y-120703942D02*
X184177171Y-120703942D01*
X184264257Y-120761999D01*
X184322314Y-120820057D01*
X184351343Y-120878114D01*
X213557714Y-120101599D02*
X213586743Y-120130628D01*
X213615771Y-120217714D01*
X213615771Y-120275771D01*
X213586743Y-120362856D01*
X213528686Y-120420914D01*
X213470629Y-120449942D01*
X213354514Y-120478971D01*
X213267429Y-120478971D01*
X213151314Y-120449942D01*
X213093257Y-120420914D01*
X213035200Y-120362856D01*
X213006171Y-120275771D01*
X213006171Y-120217714D01*
X213035200Y-120130628D01*
X213064229Y-120101599D01*
X213006171Y-119550056D02*
X213006171Y-119840342D01*
X213296457Y-119869371D01*
X213267429Y-119840342D01*
X213238400Y-119782285D01*
X213238400Y-119637142D01*
X213267429Y-119579085D01*
X213296457Y-119550056D01*
X213354514Y-119521028D01*
X213499657Y-119521028D01*
X213557714Y-119550056D01*
X213586743Y-119579085D01*
X213615771Y-119637142D01*
X213615771Y-119782285D01*
X213586743Y-119840342D01*
X213557714Y-119869371D01*
X150010543Y-116973771D02*
X150010543Y-116364171D01*
X150010543Y-116654457D02*
X150358886Y-116654457D01*
X150358886Y-116973771D02*
X150358886Y-116364171D01*
X150968486Y-116973771D02*
X150620143Y-116973771D01*
X150794315Y-116973771D02*
X150794315Y-116364171D01*
X150736258Y-116451257D01*
X150678200Y-116509314D01*
X150620143Y-116538343D01*
X169060543Y-116973771D02*
X169060543Y-116364171D01*
X169060543Y-116654457D02*
X169408886Y-116654457D01*
X169408886Y-116973771D02*
X169408886Y-116364171D01*
X169670143Y-116422229D02*
X169699172Y-116393200D01*
X169757229Y-116364171D01*
X169902372Y-116364171D01*
X169960429Y-116393200D01*
X169989458Y-116422229D01*
X170018486Y-116480286D01*
X170018486Y-116538343D01*
X169989458Y-116625429D01*
X169641115Y-116973771D01*
X170018486Y-116973771D01*
M02*
