G04 #@! TF.FileFunction,Legend,Bot*
%FSLAX46Y46*%
G04 Gerber Fmt 4.6, Leading zero omitted, Abs format (unit mm)*
G04 Created by KiCad (PCBNEW 4.0.6) date 09/10/17 15:15:48*
%MOMM*%
%LPD*%
G01*
G04 APERTURE LIST*
%ADD10C,0.100000*%
%ADD11C,0.127000*%
%ADD12C,0.203200*%
%ADD13C,0.101600*%
G04 APERTURE END LIST*
D10*
D11*
X200957500Y-112854980D02*
X200957500Y-111905020D01*
X199687500Y-105234980D02*
X199687500Y-104285020D01*
X189527500Y-115394980D02*
X189527500Y-114445020D01*
X188257500Y-110314980D02*
X188257500Y-109365020D01*
X200957500Y-128094980D02*
X200957500Y-127145020D01*
X176827500Y-115394980D02*
X176827500Y-114445020D01*
X177462500Y-117934980D02*
X177462500Y-116985020D01*
X177462500Y-123014980D02*
X177462500Y-122065020D01*
X177462500Y-120474980D02*
X177462500Y-119525020D01*
X176827500Y-125554980D02*
X176827500Y-124605020D01*
X131742500Y-109365020D02*
X131742500Y-110314980D01*
X130472500Y-114445020D02*
X130472500Y-115394980D01*
X129837500Y-119525020D02*
X129837500Y-120474980D01*
X130472500Y-124605020D02*
X130472500Y-125554980D01*
X120312500Y-134765020D02*
X120312500Y-135714980D01*
X131742500Y-129685020D02*
X131742500Y-130634980D01*
X119042500Y-127145020D02*
X119042500Y-128094980D01*
X119042500Y-111905020D02*
X119042500Y-112854980D01*
X108882500Y-101745020D02*
X108882500Y-102694980D01*
X120312500Y-104285020D02*
X120312500Y-105234980D01*
X107612500Y-110635020D02*
X107612500Y-111584980D01*
X106977500Y-119525020D02*
X106977500Y-120474980D01*
X118407500Y-119525020D02*
X118407500Y-120474980D01*
X142537500Y-122065020D02*
X142537500Y-123014980D01*
X142537500Y-116985020D02*
X142537500Y-117934980D01*
X143172500Y-114445020D02*
X143172500Y-115394980D01*
X190162500Y-120474980D02*
X190162500Y-119525020D01*
X189527500Y-125554980D02*
X189527500Y-124605020D01*
X188257500Y-130634980D02*
X188257500Y-129685020D01*
X107612500Y-128415020D02*
X107612500Y-129364980D01*
X108882500Y-137305020D02*
X108882500Y-138254980D01*
X201592500Y-120474980D02*
X201592500Y-119525020D01*
X199687500Y-135714980D02*
X199687500Y-134765020D01*
X212387500Y-129364980D02*
X212387500Y-128415020D01*
X213022500Y-120474980D02*
X213022500Y-119525020D01*
X212387500Y-111584980D02*
X212387500Y-110635020D01*
X211117500Y-102694980D02*
X211117500Y-101745020D01*
X142537500Y-119525020D02*
X142537500Y-120474980D01*
X143172500Y-124605020D02*
X143172500Y-125554980D01*
X211117500Y-138254980D02*
X211117500Y-137305020D01*
D12*
X164848860Y-120000000D02*
G75*
G03X164848860Y-120000000I-4848860J0D01*
G01*
D11*
X199819942Y-111639771D02*
X199819942Y-111030171D01*
X199674799Y-111030171D01*
X199587714Y-111059200D01*
X199529656Y-111117257D01*
X199500628Y-111175314D01*
X199471599Y-111291429D01*
X199471599Y-111378514D01*
X199500628Y-111494629D01*
X199529656Y-111552686D01*
X199587714Y-111610743D01*
X199674799Y-111639771D01*
X199819942Y-111639771D01*
X199268399Y-111030171D02*
X198861999Y-111030171D01*
X199123256Y-111639771D01*
X198549942Y-104019771D02*
X198549942Y-103410171D01*
X198404799Y-103410171D01*
X198317714Y-103439200D01*
X198259656Y-103497257D01*
X198230628Y-103555314D01*
X198201599Y-103671429D01*
X198201599Y-103758514D01*
X198230628Y-103874629D01*
X198259656Y-103932686D01*
X198317714Y-103990743D01*
X198404799Y-104019771D01*
X198549942Y-104019771D01*
X197679085Y-103410171D02*
X197795199Y-103410171D01*
X197853256Y-103439200D01*
X197882285Y-103468229D01*
X197940342Y-103555314D01*
X197969371Y-103671429D01*
X197969371Y-103903657D01*
X197940342Y-103961714D01*
X197911314Y-103990743D01*
X197853256Y-104019771D01*
X197737142Y-104019771D01*
X197679085Y-103990743D01*
X197650056Y-103961714D01*
X197621028Y-103903657D01*
X197621028Y-103758514D01*
X197650056Y-103700457D01*
X197679085Y-103671429D01*
X197737142Y-103642400D01*
X197853256Y-103642400D01*
X197911314Y-103671429D01*
X197940342Y-103700457D01*
X197969371Y-103758514D01*
X188680228Y-114179771D02*
X188680228Y-113570171D01*
X188535085Y-113570171D01*
X188448000Y-113599200D01*
X188389942Y-113657257D01*
X188360914Y-113715314D01*
X188331885Y-113831429D01*
X188331885Y-113918514D01*
X188360914Y-114034629D01*
X188389942Y-114092686D01*
X188448000Y-114150743D01*
X188535085Y-114179771D01*
X188680228Y-114179771D01*
X187751314Y-114179771D02*
X188099657Y-114179771D01*
X187925485Y-114179771D02*
X187925485Y-113570171D01*
X187983542Y-113657257D01*
X188041600Y-113715314D01*
X188099657Y-113744343D01*
X187519086Y-113628229D02*
X187490057Y-113599200D01*
X187432000Y-113570171D01*
X187286857Y-113570171D01*
X187228800Y-113599200D01*
X187199771Y-113628229D01*
X187170743Y-113686286D01*
X187170743Y-113744343D01*
X187199771Y-113831429D01*
X187548114Y-114179771D01*
X187170743Y-114179771D01*
X187410228Y-109099771D02*
X187410228Y-108490171D01*
X187265085Y-108490171D01*
X187178000Y-108519200D01*
X187119942Y-108577257D01*
X187090914Y-108635314D01*
X187061885Y-108751429D01*
X187061885Y-108838514D01*
X187090914Y-108954629D01*
X187119942Y-109012686D01*
X187178000Y-109070743D01*
X187265085Y-109099771D01*
X187410228Y-109099771D01*
X186481314Y-109099771D02*
X186829657Y-109099771D01*
X186655485Y-109099771D02*
X186655485Y-108490171D01*
X186713542Y-108577257D01*
X186771600Y-108635314D01*
X186829657Y-108664343D01*
X185900743Y-109099771D02*
X186249086Y-109099771D01*
X186074914Y-109099771D02*
X186074914Y-108490171D01*
X186132971Y-108577257D01*
X186191029Y-108635314D01*
X186249086Y-108664343D01*
X199819942Y-126879771D02*
X199819942Y-126270171D01*
X199674799Y-126270171D01*
X199587714Y-126299200D01*
X199529656Y-126357257D01*
X199500628Y-126415314D01*
X199471599Y-126531429D01*
X199471599Y-126618514D01*
X199500628Y-126734629D01*
X199529656Y-126792686D01*
X199587714Y-126850743D01*
X199674799Y-126879771D01*
X199819942Y-126879771D01*
X199181314Y-126879771D02*
X199065199Y-126879771D01*
X199007142Y-126850743D01*
X198978114Y-126821714D01*
X198920056Y-126734629D01*
X198891028Y-126618514D01*
X198891028Y-126386286D01*
X198920056Y-126328229D01*
X198949085Y-126299200D01*
X199007142Y-126270171D01*
X199123256Y-126270171D01*
X199181314Y-126299200D01*
X199210342Y-126328229D01*
X199239371Y-126386286D01*
X199239371Y-126531429D01*
X199210342Y-126589486D01*
X199181314Y-126618514D01*
X199123256Y-126647543D01*
X199007142Y-126647543D01*
X198949085Y-126618514D01*
X198920056Y-126589486D01*
X198891028Y-126531429D01*
X175980228Y-114179771D02*
X175980228Y-113570171D01*
X175835085Y-113570171D01*
X175748000Y-113599200D01*
X175689942Y-113657257D01*
X175660914Y-113715314D01*
X175631885Y-113831429D01*
X175631885Y-113918514D01*
X175660914Y-114034629D01*
X175689942Y-114092686D01*
X175748000Y-114150743D01*
X175835085Y-114179771D01*
X175980228Y-114179771D01*
X175051314Y-114179771D02*
X175399657Y-114179771D01*
X175225485Y-114179771D02*
X175225485Y-113570171D01*
X175283542Y-113657257D01*
X175341600Y-113715314D01*
X175399657Y-113744343D01*
X174528800Y-113570171D02*
X174644914Y-113570171D01*
X174702971Y-113599200D01*
X174732000Y-113628229D01*
X174790057Y-113715314D01*
X174819086Y-113831429D01*
X174819086Y-114063657D01*
X174790057Y-114121714D01*
X174761029Y-114150743D01*
X174702971Y-114179771D01*
X174586857Y-114179771D01*
X174528800Y-114150743D01*
X174499771Y-114121714D01*
X174470743Y-114063657D01*
X174470743Y-113918514D01*
X174499771Y-113860457D01*
X174528800Y-113831429D01*
X174586857Y-113802400D01*
X174702971Y-113802400D01*
X174761029Y-113831429D01*
X174790057Y-113860457D01*
X174819086Y-113918514D01*
X176615228Y-116719771D02*
X176615228Y-116110171D01*
X176470085Y-116110171D01*
X176383000Y-116139200D01*
X176324942Y-116197257D01*
X176295914Y-116255314D01*
X176266885Y-116371429D01*
X176266885Y-116458514D01*
X176295914Y-116574629D01*
X176324942Y-116632686D01*
X176383000Y-116690743D01*
X176470085Y-116719771D01*
X176615228Y-116719771D01*
X175686314Y-116719771D02*
X176034657Y-116719771D01*
X175860485Y-116719771D02*
X175860485Y-116110171D01*
X175918542Y-116197257D01*
X175976600Y-116255314D01*
X176034657Y-116284343D01*
X175483114Y-116110171D02*
X175076714Y-116110171D01*
X175337971Y-116719771D01*
X176615228Y-121799771D02*
X176615228Y-121190171D01*
X176470085Y-121190171D01*
X176383000Y-121219200D01*
X176324942Y-121277257D01*
X176295914Y-121335314D01*
X176266885Y-121451429D01*
X176266885Y-121538514D01*
X176295914Y-121654629D01*
X176324942Y-121712686D01*
X176383000Y-121770743D01*
X176470085Y-121799771D01*
X176615228Y-121799771D01*
X175686314Y-121799771D02*
X176034657Y-121799771D01*
X175860485Y-121799771D02*
X175860485Y-121190171D01*
X175918542Y-121277257D01*
X175976600Y-121335314D01*
X176034657Y-121364343D01*
X175396029Y-121799771D02*
X175279914Y-121799771D01*
X175221857Y-121770743D01*
X175192829Y-121741714D01*
X175134771Y-121654629D01*
X175105743Y-121538514D01*
X175105743Y-121306286D01*
X175134771Y-121248229D01*
X175163800Y-121219200D01*
X175221857Y-121190171D01*
X175337971Y-121190171D01*
X175396029Y-121219200D01*
X175425057Y-121248229D01*
X175454086Y-121306286D01*
X175454086Y-121451429D01*
X175425057Y-121509486D01*
X175396029Y-121538514D01*
X175337971Y-121567543D01*
X175221857Y-121567543D01*
X175163800Y-121538514D01*
X175134771Y-121509486D01*
X175105743Y-121451429D01*
X176615228Y-119259771D02*
X176615228Y-118650171D01*
X176470085Y-118650171D01*
X176383000Y-118679200D01*
X176324942Y-118737257D01*
X176295914Y-118795314D01*
X176266885Y-118911429D01*
X176266885Y-118998514D01*
X176295914Y-119114629D01*
X176324942Y-119172686D01*
X176383000Y-119230743D01*
X176470085Y-119259771D01*
X176615228Y-119259771D01*
X175686314Y-119259771D02*
X176034657Y-119259771D01*
X175860485Y-119259771D02*
X175860485Y-118650171D01*
X175918542Y-118737257D01*
X175976600Y-118795314D01*
X176034657Y-118824343D01*
X175337971Y-118911429D02*
X175396029Y-118882400D01*
X175425057Y-118853371D01*
X175454086Y-118795314D01*
X175454086Y-118766286D01*
X175425057Y-118708229D01*
X175396029Y-118679200D01*
X175337971Y-118650171D01*
X175221857Y-118650171D01*
X175163800Y-118679200D01*
X175134771Y-118708229D01*
X175105743Y-118766286D01*
X175105743Y-118795314D01*
X175134771Y-118853371D01*
X175163800Y-118882400D01*
X175221857Y-118911429D01*
X175337971Y-118911429D01*
X175396029Y-118940457D01*
X175425057Y-118969486D01*
X175454086Y-119027543D01*
X175454086Y-119143657D01*
X175425057Y-119201714D01*
X175396029Y-119230743D01*
X175337971Y-119259771D01*
X175221857Y-119259771D01*
X175163800Y-119230743D01*
X175134771Y-119201714D01*
X175105743Y-119143657D01*
X175105743Y-119027543D01*
X175134771Y-118969486D01*
X175163800Y-118940457D01*
X175221857Y-118911429D01*
X175980228Y-124339771D02*
X175980228Y-123730171D01*
X175835085Y-123730171D01*
X175748000Y-123759200D01*
X175689942Y-123817257D01*
X175660914Y-123875314D01*
X175631885Y-123991429D01*
X175631885Y-124078514D01*
X175660914Y-124194629D01*
X175689942Y-124252686D01*
X175748000Y-124310743D01*
X175835085Y-124339771D01*
X175980228Y-124339771D01*
X175399657Y-123788229D02*
X175370628Y-123759200D01*
X175312571Y-123730171D01*
X175167428Y-123730171D01*
X175109371Y-123759200D01*
X175080342Y-123788229D01*
X175051314Y-123846286D01*
X175051314Y-123904343D01*
X175080342Y-123991429D01*
X175428685Y-124339771D01*
X175051314Y-124339771D01*
X174673943Y-123730171D02*
X174615886Y-123730171D01*
X174557829Y-123759200D01*
X174528800Y-123788229D01*
X174499771Y-123846286D01*
X174470743Y-123962400D01*
X174470743Y-124107543D01*
X174499771Y-124223657D01*
X174528800Y-124281714D01*
X174557829Y-124310743D01*
X174615886Y-124339771D01*
X174673943Y-124339771D01*
X174732000Y-124310743D01*
X174761029Y-124281714D01*
X174790057Y-124223657D01*
X174819086Y-124107543D01*
X174819086Y-123962400D01*
X174790057Y-123846286D01*
X174761029Y-123788229D01*
X174732000Y-123759200D01*
X174673943Y-123730171D01*
X134070228Y-109099771D02*
X134070228Y-108490171D01*
X133925085Y-108490171D01*
X133838000Y-108519200D01*
X133779942Y-108577257D01*
X133750914Y-108635314D01*
X133721885Y-108751429D01*
X133721885Y-108838514D01*
X133750914Y-108954629D01*
X133779942Y-109012686D01*
X133838000Y-109070743D01*
X133925085Y-109099771D01*
X134070228Y-109099771D01*
X133489657Y-108548229D02*
X133460628Y-108519200D01*
X133402571Y-108490171D01*
X133257428Y-108490171D01*
X133199371Y-108519200D01*
X133170342Y-108548229D01*
X133141314Y-108606286D01*
X133141314Y-108664343D01*
X133170342Y-108751429D01*
X133518685Y-109099771D01*
X133141314Y-109099771D01*
X132618800Y-108490171D02*
X132734914Y-108490171D01*
X132792971Y-108519200D01*
X132822000Y-108548229D01*
X132880057Y-108635314D01*
X132909086Y-108751429D01*
X132909086Y-108983657D01*
X132880057Y-109041714D01*
X132851029Y-109070743D01*
X132792971Y-109099771D01*
X132676857Y-109099771D01*
X132618800Y-109070743D01*
X132589771Y-109041714D01*
X132560743Y-108983657D01*
X132560743Y-108838514D01*
X132589771Y-108780457D01*
X132618800Y-108751429D01*
X132676857Y-108722400D01*
X132792971Y-108722400D01*
X132851029Y-108751429D01*
X132880057Y-108780457D01*
X132909086Y-108838514D01*
X132800228Y-114179771D02*
X132800228Y-113570171D01*
X132655085Y-113570171D01*
X132568000Y-113599200D01*
X132509942Y-113657257D01*
X132480914Y-113715314D01*
X132451885Y-113831429D01*
X132451885Y-113918514D01*
X132480914Y-114034629D01*
X132509942Y-114092686D01*
X132568000Y-114150743D01*
X132655085Y-114179771D01*
X132800228Y-114179771D01*
X132219657Y-113628229D02*
X132190628Y-113599200D01*
X132132571Y-113570171D01*
X131987428Y-113570171D01*
X131929371Y-113599200D01*
X131900342Y-113628229D01*
X131871314Y-113686286D01*
X131871314Y-113744343D01*
X131900342Y-113831429D01*
X132248685Y-114179771D01*
X131871314Y-114179771D01*
X131668114Y-113570171D02*
X131261714Y-113570171D01*
X131522971Y-114179771D01*
X132165228Y-119259771D02*
X132165228Y-118650171D01*
X132020085Y-118650171D01*
X131933000Y-118679200D01*
X131874942Y-118737257D01*
X131845914Y-118795314D01*
X131816885Y-118911429D01*
X131816885Y-118998514D01*
X131845914Y-119114629D01*
X131874942Y-119172686D01*
X131933000Y-119230743D01*
X132020085Y-119259771D01*
X132165228Y-119259771D01*
X131584657Y-118708229D02*
X131555628Y-118679200D01*
X131497571Y-118650171D01*
X131352428Y-118650171D01*
X131294371Y-118679200D01*
X131265342Y-118708229D01*
X131236314Y-118766286D01*
X131236314Y-118824343D01*
X131265342Y-118911429D01*
X131613685Y-119259771D01*
X131236314Y-119259771D01*
X130887971Y-118911429D02*
X130946029Y-118882400D01*
X130975057Y-118853371D01*
X131004086Y-118795314D01*
X131004086Y-118766286D01*
X130975057Y-118708229D01*
X130946029Y-118679200D01*
X130887971Y-118650171D01*
X130771857Y-118650171D01*
X130713800Y-118679200D01*
X130684771Y-118708229D01*
X130655743Y-118766286D01*
X130655743Y-118795314D01*
X130684771Y-118853371D01*
X130713800Y-118882400D01*
X130771857Y-118911429D01*
X130887971Y-118911429D01*
X130946029Y-118940457D01*
X130975057Y-118969486D01*
X131004086Y-119027543D01*
X131004086Y-119143657D01*
X130975057Y-119201714D01*
X130946029Y-119230743D01*
X130887971Y-119259771D01*
X130771857Y-119259771D01*
X130713800Y-119230743D01*
X130684771Y-119201714D01*
X130655743Y-119143657D01*
X130655743Y-119027543D01*
X130684771Y-118969486D01*
X130713800Y-118940457D01*
X130771857Y-118911429D01*
X132800228Y-124339771D02*
X132800228Y-123730171D01*
X132655085Y-123730171D01*
X132568000Y-123759200D01*
X132509942Y-123817257D01*
X132480914Y-123875314D01*
X132451885Y-123991429D01*
X132451885Y-124078514D01*
X132480914Y-124194629D01*
X132509942Y-124252686D01*
X132568000Y-124310743D01*
X132655085Y-124339771D01*
X132800228Y-124339771D01*
X132219657Y-123788229D02*
X132190628Y-123759200D01*
X132132571Y-123730171D01*
X131987428Y-123730171D01*
X131929371Y-123759200D01*
X131900342Y-123788229D01*
X131871314Y-123846286D01*
X131871314Y-123904343D01*
X131900342Y-123991429D01*
X132248685Y-124339771D01*
X131871314Y-124339771D01*
X131581029Y-124339771D02*
X131464914Y-124339771D01*
X131406857Y-124310743D01*
X131377829Y-124281714D01*
X131319771Y-124194629D01*
X131290743Y-124078514D01*
X131290743Y-123846286D01*
X131319771Y-123788229D01*
X131348800Y-123759200D01*
X131406857Y-123730171D01*
X131522971Y-123730171D01*
X131581029Y-123759200D01*
X131610057Y-123788229D01*
X131639086Y-123846286D01*
X131639086Y-123991429D01*
X131610057Y-124049486D01*
X131581029Y-124078514D01*
X131522971Y-124107543D01*
X131406857Y-124107543D01*
X131348800Y-124078514D01*
X131319771Y-124049486D01*
X131290743Y-123991429D01*
X122640228Y-134499771D02*
X122640228Y-133890171D01*
X122495085Y-133890171D01*
X122408000Y-133919200D01*
X122349942Y-133977257D01*
X122320914Y-134035314D01*
X122291885Y-134151429D01*
X122291885Y-134238514D01*
X122320914Y-134354629D01*
X122349942Y-134412686D01*
X122408000Y-134470743D01*
X122495085Y-134499771D01*
X122640228Y-134499771D01*
X122088685Y-133890171D02*
X121711314Y-133890171D01*
X121914514Y-134122400D01*
X121827428Y-134122400D01*
X121769371Y-134151429D01*
X121740342Y-134180457D01*
X121711314Y-134238514D01*
X121711314Y-134383657D01*
X121740342Y-134441714D01*
X121769371Y-134470743D01*
X121827428Y-134499771D01*
X122001600Y-134499771D01*
X122059657Y-134470743D01*
X122088685Y-134441714D01*
X121159771Y-133890171D02*
X121450057Y-133890171D01*
X121479086Y-134180457D01*
X121450057Y-134151429D01*
X121392000Y-134122400D01*
X121246857Y-134122400D01*
X121188800Y-134151429D01*
X121159771Y-134180457D01*
X121130743Y-134238514D01*
X121130743Y-134383657D01*
X121159771Y-134441714D01*
X121188800Y-134470743D01*
X121246857Y-134499771D01*
X121392000Y-134499771D01*
X121450057Y-134470743D01*
X121479086Y-134441714D01*
X134070228Y-129419771D02*
X134070228Y-128810171D01*
X133925085Y-128810171D01*
X133838000Y-128839200D01*
X133779942Y-128897257D01*
X133750914Y-128955314D01*
X133721885Y-129071429D01*
X133721885Y-129158514D01*
X133750914Y-129274629D01*
X133779942Y-129332686D01*
X133838000Y-129390743D01*
X133925085Y-129419771D01*
X134070228Y-129419771D01*
X133518685Y-128810171D02*
X133141314Y-128810171D01*
X133344514Y-129042400D01*
X133257428Y-129042400D01*
X133199371Y-129071429D01*
X133170342Y-129100457D01*
X133141314Y-129158514D01*
X133141314Y-129303657D01*
X133170342Y-129361714D01*
X133199371Y-129390743D01*
X133257428Y-129419771D01*
X133431600Y-129419771D01*
X133489657Y-129390743D01*
X133518685Y-129361714D01*
X132763943Y-128810171D02*
X132705886Y-128810171D01*
X132647829Y-128839200D01*
X132618800Y-128868229D01*
X132589771Y-128926286D01*
X132560743Y-129042400D01*
X132560743Y-129187543D01*
X132589771Y-129303657D01*
X132618800Y-129361714D01*
X132647829Y-129390743D01*
X132705886Y-129419771D01*
X132763943Y-129419771D01*
X132822000Y-129390743D01*
X132851029Y-129361714D01*
X132880057Y-129303657D01*
X132909086Y-129187543D01*
X132909086Y-129042400D01*
X132880057Y-128926286D01*
X132851029Y-128868229D01*
X132822000Y-128839200D01*
X132763943Y-128810171D01*
X121370228Y-126879771D02*
X121370228Y-126270171D01*
X121225085Y-126270171D01*
X121138000Y-126299200D01*
X121079942Y-126357257D01*
X121050914Y-126415314D01*
X121021885Y-126531429D01*
X121021885Y-126618514D01*
X121050914Y-126734629D01*
X121079942Y-126792686D01*
X121138000Y-126850743D01*
X121225085Y-126879771D01*
X121370228Y-126879771D01*
X120818685Y-126270171D02*
X120441314Y-126270171D01*
X120644514Y-126502400D01*
X120557428Y-126502400D01*
X120499371Y-126531429D01*
X120470342Y-126560457D01*
X120441314Y-126618514D01*
X120441314Y-126763657D01*
X120470342Y-126821714D01*
X120499371Y-126850743D01*
X120557428Y-126879771D01*
X120731600Y-126879771D01*
X120789657Y-126850743D01*
X120818685Y-126821714D01*
X119918800Y-126473371D02*
X119918800Y-126879771D01*
X120063943Y-126241143D02*
X120209086Y-126676571D01*
X119831714Y-126676571D01*
X121370228Y-111639771D02*
X121370228Y-111030171D01*
X121225085Y-111030171D01*
X121138000Y-111059200D01*
X121079942Y-111117257D01*
X121050914Y-111175314D01*
X121021885Y-111291429D01*
X121021885Y-111378514D01*
X121050914Y-111494629D01*
X121079942Y-111552686D01*
X121138000Y-111610743D01*
X121225085Y-111639771D01*
X121370228Y-111639771D01*
X120818685Y-111030171D02*
X120441314Y-111030171D01*
X120644514Y-111262400D01*
X120557428Y-111262400D01*
X120499371Y-111291429D01*
X120470342Y-111320457D01*
X120441314Y-111378514D01*
X120441314Y-111523657D01*
X120470342Y-111581714D01*
X120499371Y-111610743D01*
X120557428Y-111639771D01*
X120731600Y-111639771D01*
X120789657Y-111610743D01*
X120818685Y-111581714D01*
X120209086Y-111088229D02*
X120180057Y-111059200D01*
X120122000Y-111030171D01*
X119976857Y-111030171D01*
X119918800Y-111059200D01*
X119889771Y-111088229D01*
X119860743Y-111146286D01*
X119860743Y-111204343D01*
X119889771Y-111291429D01*
X120238114Y-111639771D01*
X119860743Y-111639771D01*
X111210228Y-101479771D02*
X111210228Y-100870171D01*
X111065085Y-100870171D01*
X110978000Y-100899200D01*
X110919942Y-100957257D01*
X110890914Y-101015314D01*
X110861885Y-101131429D01*
X110861885Y-101218514D01*
X110890914Y-101334629D01*
X110919942Y-101392686D01*
X110978000Y-101450743D01*
X111065085Y-101479771D01*
X111210228Y-101479771D01*
X110658685Y-100870171D02*
X110281314Y-100870171D01*
X110484514Y-101102400D01*
X110397428Y-101102400D01*
X110339371Y-101131429D01*
X110310342Y-101160457D01*
X110281314Y-101218514D01*
X110281314Y-101363657D01*
X110310342Y-101421714D01*
X110339371Y-101450743D01*
X110397428Y-101479771D01*
X110571600Y-101479771D01*
X110629657Y-101450743D01*
X110658685Y-101421714D01*
X109758800Y-100870171D02*
X109874914Y-100870171D01*
X109932971Y-100899200D01*
X109962000Y-100928229D01*
X110020057Y-101015314D01*
X110049086Y-101131429D01*
X110049086Y-101363657D01*
X110020057Y-101421714D01*
X109991029Y-101450743D01*
X109932971Y-101479771D01*
X109816857Y-101479771D01*
X109758800Y-101450743D01*
X109729771Y-101421714D01*
X109700743Y-101363657D01*
X109700743Y-101218514D01*
X109729771Y-101160457D01*
X109758800Y-101131429D01*
X109816857Y-101102400D01*
X109932971Y-101102400D01*
X109991029Y-101131429D01*
X110020057Y-101160457D01*
X110049086Y-101218514D01*
X122640228Y-104019771D02*
X122640228Y-103410171D01*
X122495085Y-103410171D01*
X122408000Y-103439200D01*
X122349942Y-103497257D01*
X122320914Y-103555314D01*
X122291885Y-103671429D01*
X122291885Y-103758514D01*
X122320914Y-103874629D01*
X122349942Y-103932686D01*
X122408000Y-103990743D01*
X122495085Y-104019771D01*
X122640228Y-104019771D01*
X122088685Y-103410171D02*
X121711314Y-103410171D01*
X121914514Y-103642400D01*
X121827428Y-103642400D01*
X121769371Y-103671429D01*
X121740342Y-103700457D01*
X121711314Y-103758514D01*
X121711314Y-103903657D01*
X121740342Y-103961714D01*
X121769371Y-103990743D01*
X121827428Y-104019771D01*
X122001600Y-104019771D01*
X122059657Y-103990743D01*
X122088685Y-103961714D01*
X121130743Y-104019771D02*
X121479086Y-104019771D01*
X121304914Y-104019771D02*
X121304914Y-103410171D01*
X121362971Y-103497257D01*
X121421029Y-103555314D01*
X121479086Y-103584343D01*
X109940228Y-110369771D02*
X109940228Y-109760171D01*
X109795085Y-109760171D01*
X109708000Y-109789200D01*
X109649942Y-109847257D01*
X109620914Y-109905314D01*
X109591885Y-110021429D01*
X109591885Y-110108514D01*
X109620914Y-110224629D01*
X109649942Y-110282686D01*
X109708000Y-110340743D01*
X109795085Y-110369771D01*
X109940228Y-110369771D01*
X109388685Y-109760171D02*
X109011314Y-109760171D01*
X109214514Y-109992400D01*
X109127428Y-109992400D01*
X109069371Y-110021429D01*
X109040342Y-110050457D01*
X109011314Y-110108514D01*
X109011314Y-110253657D01*
X109040342Y-110311714D01*
X109069371Y-110340743D01*
X109127428Y-110369771D01*
X109301600Y-110369771D01*
X109359657Y-110340743D01*
X109388685Y-110311714D01*
X108808114Y-109760171D02*
X108401714Y-109760171D01*
X108662971Y-110369771D01*
X109305228Y-119259771D02*
X109305228Y-118650171D01*
X109160085Y-118650171D01*
X109073000Y-118679200D01*
X109014942Y-118737257D01*
X108985914Y-118795314D01*
X108956885Y-118911429D01*
X108956885Y-118998514D01*
X108985914Y-119114629D01*
X109014942Y-119172686D01*
X109073000Y-119230743D01*
X109160085Y-119259771D01*
X109305228Y-119259771D01*
X108753685Y-118650171D02*
X108376314Y-118650171D01*
X108579514Y-118882400D01*
X108492428Y-118882400D01*
X108434371Y-118911429D01*
X108405342Y-118940457D01*
X108376314Y-118998514D01*
X108376314Y-119143657D01*
X108405342Y-119201714D01*
X108434371Y-119230743D01*
X108492428Y-119259771D01*
X108666600Y-119259771D01*
X108724657Y-119230743D01*
X108753685Y-119201714D01*
X108027971Y-118911429D02*
X108086029Y-118882400D01*
X108115057Y-118853371D01*
X108144086Y-118795314D01*
X108144086Y-118766286D01*
X108115057Y-118708229D01*
X108086029Y-118679200D01*
X108027971Y-118650171D01*
X107911857Y-118650171D01*
X107853800Y-118679200D01*
X107824771Y-118708229D01*
X107795743Y-118766286D01*
X107795743Y-118795314D01*
X107824771Y-118853371D01*
X107853800Y-118882400D01*
X107911857Y-118911429D01*
X108027971Y-118911429D01*
X108086029Y-118940457D01*
X108115057Y-118969486D01*
X108144086Y-119027543D01*
X108144086Y-119143657D01*
X108115057Y-119201714D01*
X108086029Y-119230743D01*
X108027971Y-119259771D01*
X107911857Y-119259771D01*
X107853800Y-119230743D01*
X107824771Y-119201714D01*
X107795743Y-119143657D01*
X107795743Y-119027543D01*
X107824771Y-118969486D01*
X107853800Y-118940457D01*
X107911857Y-118911429D01*
X120735228Y-119259771D02*
X120735228Y-118650171D01*
X120590085Y-118650171D01*
X120503000Y-118679200D01*
X120444942Y-118737257D01*
X120415914Y-118795314D01*
X120386885Y-118911429D01*
X120386885Y-118998514D01*
X120415914Y-119114629D01*
X120444942Y-119172686D01*
X120503000Y-119230743D01*
X120590085Y-119259771D01*
X120735228Y-119259771D01*
X120183685Y-118650171D02*
X119806314Y-118650171D01*
X120009514Y-118882400D01*
X119922428Y-118882400D01*
X119864371Y-118911429D01*
X119835342Y-118940457D01*
X119806314Y-118998514D01*
X119806314Y-119143657D01*
X119835342Y-119201714D01*
X119864371Y-119230743D01*
X119922428Y-119259771D01*
X120096600Y-119259771D01*
X120154657Y-119230743D01*
X120183685Y-119201714D01*
X119603114Y-118650171D02*
X119225743Y-118650171D01*
X119428943Y-118882400D01*
X119341857Y-118882400D01*
X119283800Y-118911429D01*
X119254771Y-118940457D01*
X119225743Y-118998514D01*
X119225743Y-119143657D01*
X119254771Y-119201714D01*
X119283800Y-119230743D01*
X119341857Y-119259771D01*
X119516029Y-119259771D01*
X119574086Y-119230743D01*
X119603114Y-119201714D01*
X144865228Y-121799771D02*
X144865228Y-121190171D01*
X144720085Y-121190171D01*
X144633000Y-121219200D01*
X144574942Y-121277257D01*
X144545914Y-121335314D01*
X144516885Y-121451429D01*
X144516885Y-121538514D01*
X144545914Y-121654629D01*
X144574942Y-121712686D01*
X144633000Y-121770743D01*
X144720085Y-121799771D01*
X144865228Y-121799771D01*
X144284657Y-121248229D02*
X144255628Y-121219200D01*
X144197571Y-121190171D01*
X144052428Y-121190171D01*
X143994371Y-121219200D01*
X143965342Y-121248229D01*
X143936314Y-121306286D01*
X143936314Y-121364343D01*
X143965342Y-121451429D01*
X144313685Y-121799771D01*
X143936314Y-121799771D01*
X143413800Y-121393371D02*
X143413800Y-121799771D01*
X143558943Y-121161143D02*
X143704086Y-121596571D01*
X143326714Y-121596571D01*
X144865228Y-116719771D02*
X144865228Y-116110171D01*
X144720085Y-116110171D01*
X144633000Y-116139200D01*
X144574942Y-116197257D01*
X144545914Y-116255314D01*
X144516885Y-116371429D01*
X144516885Y-116458514D01*
X144545914Y-116574629D01*
X144574942Y-116632686D01*
X144633000Y-116690743D01*
X144720085Y-116719771D01*
X144865228Y-116719771D01*
X144284657Y-116168229D02*
X144255628Y-116139200D01*
X144197571Y-116110171D01*
X144052428Y-116110171D01*
X143994371Y-116139200D01*
X143965342Y-116168229D01*
X143936314Y-116226286D01*
X143936314Y-116284343D01*
X143965342Y-116371429D01*
X144313685Y-116719771D01*
X143936314Y-116719771D01*
X143704086Y-116168229D02*
X143675057Y-116139200D01*
X143617000Y-116110171D01*
X143471857Y-116110171D01*
X143413800Y-116139200D01*
X143384771Y-116168229D01*
X143355743Y-116226286D01*
X143355743Y-116284343D01*
X143384771Y-116371429D01*
X143733114Y-116719771D01*
X143355743Y-116719771D01*
X145500228Y-114179771D02*
X145500228Y-113570171D01*
X145355085Y-113570171D01*
X145268000Y-113599200D01*
X145209942Y-113657257D01*
X145180914Y-113715314D01*
X145151885Y-113831429D01*
X145151885Y-113918514D01*
X145180914Y-114034629D01*
X145209942Y-114092686D01*
X145268000Y-114150743D01*
X145355085Y-114179771D01*
X145500228Y-114179771D01*
X144919657Y-113628229D02*
X144890628Y-113599200D01*
X144832571Y-113570171D01*
X144687428Y-113570171D01*
X144629371Y-113599200D01*
X144600342Y-113628229D01*
X144571314Y-113686286D01*
X144571314Y-113744343D01*
X144600342Y-113831429D01*
X144948685Y-114179771D01*
X144571314Y-114179771D01*
X143990743Y-114179771D02*
X144339086Y-114179771D01*
X144164914Y-114179771D02*
X144164914Y-113570171D01*
X144222971Y-113657257D01*
X144281029Y-113715314D01*
X144339086Y-113744343D01*
X189315228Y-119259771D02*
X189315228Y-118650171D01*
X189170085Y-118650171D01*
X189083000Y-118679200D01*
X189024942Y-118737257D01*
X188995914Y-118795314D01*
X188966885Y-118911429D01*
X188966885Y-118998514D01*
X188995914Y-119114629D01*
X189024942Y-119172686D01*
X189083000Y-119230743D01*
X189170085Y-119259771D01*
X189315228Y-119259771D01*
X188386314Y-119259771D02*
X188734657Y-119259771D01*
X188560485Y-119259771D02*
X188560485Y-118650171D01*
X188618542Y-118737257D01*
X188676600Y-118795314D01*
X188734657Y-118824343D01*
X188183114Y-118650171D02*
X187805743Y-118650171D01*
X188008943Y-118882400D01*
X187921857Y-118882400D01*
X187863800Y-118911429D01*
X187834771Y-118940457D01*
X187805743Y-118998514D01*
X187805743Y-119143657D01*
X187834771Y-119201714D01*
X187863800Y-119230743D01*
X187921857Y-119259771D01*
X188096029Y-119259771D01*
X188154086Y-119230743D01*
X188183114Y-119201714D01*
X188680228Y-124339771D02*
X188680228Y-123730171D01*
X188535085Y-123730171D01*
X188448000Y-123759200D01*
X188389942Y-123817257D01*
X188360914Y-123875314D01*
X188331885Y-123991429D01*
X188331885Y-124078514D01*
X188360914Y-124194629D01*
X188389942Y-124252686D01*
X188448000Y-124310743D01*
X188535085Y-124339771D01*
X188680228Y-124339771D01*
X187751314Y-124339771D02*
X188099657Y-124339771D01*
X187925485Y-124339771D02*
X187925485Y-123730171D01*
X187983542Y-123817257D01*
X188041600Y-123875314D01*
X188099657Y-123904343D01*
X187228800Y-123933371D02*
X187228800Y-124339771D01*
X187373943Y-123701143D02*
X187519086Y-124136571D01*
X187141714Y-124136571D01*
X187410228Y-129419771D02*
X187410228Y-128810171D01*
X187265085Y-128810171D01*
X187178000Y-128839200D01*
X187119942Y-128897257D01*
X187090914Y-128955314D01*
X187061885Y-129071429D01*
X187061885Y-129158514D01*
X187090914Y-129274629D01*
X187119942Y-129332686D01*
X187178000Y-129390743D01*
X187265085Y-129419771D01*
X187410228Y-129419771D01*
X186481314Y-129419771D02*
X186829657Y-129419771D01*
X186655485Y-129419771D02*
X186655485Y-128810171D01*
X186713542Y-128897257D01*
X186771600Y-128955314D01*
X186829657Y-128984343D01*
X185929771Y-128810171D02*
X186220057Y-128810171D01*
X186249086Y-129100457D01*
X186220057Y-129071429D01*
X186162000Y-129042400D01*
X186016857Y-129042400D01*
X185958800Y-129071429D01*
X185929771Y-129100457D01*
X185900743Y-129158514D01*
X185900743Y-129303657D01*
X185929771Y-129361714D01*
X185958800Y-129390743D01*
X186016857Y-129419771D01*
X186162000Y-129419771D01*
X186220057Y-129390743D01*
X186249086Y-129361714D01*
X109940228Y-128149771D02*
X109940228Y-127540171D01*
X109795085Y-127540171D01*
X109708000Y-127569200D01*
X109649942Y-127627257D01*
X109620914Y-127685314D01*
X109591885Y-127801429D01*
X109591885Y-127888514D01*
X109620914Y-128004629D01*
X109649942Y-128062686D01*
X109708000Y-128120743D01*
X109795085Y-128149771D01*
X109940228Y-128149771D01*
X109388685Y-127540171D02*
X109011314Y-127540171D01*
X109214514Y-127772400D01*
X109127428Y-127772400D01*
X109069371Y-127801429D01*
X109040342Y-127830457D01*
X109011314Y-127888514D01*
X109011314Y-128033657D01*
X109040342Y-128091714D01*
X109069371Y-128120743D01*
X109127428Y-128149771D01*
X109301600Y-128149771D01*
X109359657Y-128120743D01*
X109388685Y-128091714D01*
X108721029Y-128149771D02*
X108604914Y-128149771D01*
X108546857Y-128120743D01*
X108517829Y-128091714D01*
X108459771Y-128004629D01*
X108430743Y-127888514D01*
X108430743Y-127656286D01*
X108459771Y-127598229D01*
X108488800Y-127569200D01*
X108546857Y-127540171D01*
X108662971Y-127540171D01*
X108721029Y-127569200D01*
X108750057Y-127598229D01*
X108779086Y-127656286D01*
X108779086Y-127801429D01*
X108750057Y-127859486D01*
X108721029Y-127888514D01*
X108662971Y-127917543D01*
X108546857Y-127917543D01*
X108488800Y-127888514D01*
X108459771Y-127859486D01*
X108430743Y-127801429D01*
X111210228Y-137039771D02*
X111210228Y-136430171D01*
X111065085Y-136430171D01*
X110978000Y-136459200D01*
X110919942Y-136517257D01*
X110890914Y-136575314D01*
X110861885Y-136691429D01*
X110861885Y-136778514D01*
X110890914Y-136894629D01*
X110919942Y-136952686D01*
X110978000Y-137010743D01*
X111065085Y-137039771D01*
X111210228Y-137039771D01*
X110339371Y-136633371D02*
X110339371Y-137039771D01*
X110484514Y-136401143D02*
X110629657Y-136836571D01*
X110252285Y-136836571D01*
X109903943Y-136430171D02*
X109845886Y-136430171D01*
X109787829Y-136459200D01*
X109758800Y-136488229D01*
X109729771Y-136546286D01*
X109700743Y-136662400D01*
X109700743Y-136807543D01*
X109729771Y-136923657D01*
X109758800Y-136981714D01*
X109787829Y-137010743D01*
X109845886Y-137039771D01*
X109903943Y-137039771D01*
X109962000Y-137010743D01*
X109991029Y-136981714D01*
X110020057Y-136923657D01*
X110049086Y-136807543D01*
X110049086Y-136662400D01*
X110020057Y-136546286D01*
X109991029Y-136488229D01*
X109962000Y-136459200D01*
X109903943Y-136430171D01*
X200454942Y-119259771D02*
X200454942Y-118650171D01*
X200309799Y-118650171D01*
X200222714Y-118679200D01*
X200164656Y-118737257D01*
X200135628Y-118795314D01*
X200106599Y-118911429D01*
X200106599Y-118998514D01*
X200135628Y-119114629D01*
X200164656Y-119172686D01*
X200222714Y-119230743D01*
X200309799Y-119259771D01*
X200454942Y-119259771D01*
X199758256Y-118911429D02*
X199816314Y-118882400D01*
X199845342Y-118853371D01*
X199874371Y-118795314D01*
X199874371Y-118766286D01*
X199845342Y-118708229D01*
X199816314Y-118679200D01*
X199758256Y-118650171D01*
X199642142Y-118650171D01*
X199584085Y-118679200D01*
X199555056Y-118708229D01*
X199526028Y-118766286D01*
X199526028Y-118795314D01*
X199555056Y-118853371D01*
X199584085Y-118882400D01*
X199642142Y-118911429D01*
X199758256Y-118911429D01*
X199816314Y-118940457D01*
X199845342Y-118969486D01*
X199874371Y-119027543D01*
X199874371Y-119143657D01*
X199845342Y-119201714D01*
X199816314Y-119230743D01*
X199758256Y-119259771D01*
X199642142Y-119259771D01*
X199584085Y-119230743D01*
X199555056Y-119201714D01*
X199526028Y-119143657D01*
X199526028Y-119027543D01*
X199555056Y-118969486D01*
X199584085Y-118940457D01*
X199642142Y-118911429D01*
X198840228Y-134499771D02*
X198840228Y-133890171D01*
X198695085Y-133890171D01*
X198608000Y-133919200D01*
X198549942Y-133977257D01*
X198520914Y-134035314D01*
X198491885Y-134151429D01*
X198491885Y-134238514D01*
X198520914Y-134354629D01*
X198549942Y-134412686D01*
X198608000Y-134470743D01*
X198695085Y-134499771D01*
X198840228Y-134499771D01*
X197911314Y-134499771D02*
X198259657Y-134499771D01*
X198085485Y-134499771D02*
X198085485Y-133890171D01*
X198143542Y-133977257D01*
X198201600Y-134035314D01*
X198259657Y-134064343D01*
X197533943Y-133890171D02*
X197475886Y-133890171D01*
X197417829Y-133919200D01*
X197388800Y-133948229D01*
X197359771Y-134006286D01*
X197330743Y-134122400D01*
X197330743Y-134267543D01*
X197359771Y-134383657D01*
X197388800Y-134441714D01*
X197417829Y-134470743D01*
X197475886Y-134499771D01*
X197533943Y-134499771D01*
X197592000Y-134470743D01*
X197621029Y-134441714D01*
X197650057Y-134383657D01*
X197679086Y-134267543D01*
X197679086Y-134122400D01*
X197650057Y-134006286D01*
X197621029Y-133948229D01*
X197592000Y-133919200D01*
X197533943Y-133890171D01*
X211249942Y-128149771D02*
X211249942Y-127540171D01*
X211104799Y-127540171D01*
X211017714Y-127569200D01*
X210959656Y-127627257D01*
X210930628Y-127685314D01*
X210901599Y-127801429D01*
X210901599Y-127888514D01*
X210930628Y-128004629D01*
X210959656Y-128062686D01*
X211017714Y-128120743D01*
X211104799Y-128149771D01*
X211249942Y-128149771D01*
X210379085Y-127743371D02*
X210379085Y-128149771D01*
X210524228Y-127511143D02*
X210669371Y-127946571D01*
X210291999Y-127946571D01*
X211884942Y-119259771D02*
X211884942Y-118650171D01*
X211739799Y-118650171D01*
X211652714Y-118679200D01*
X211594656Y-118737257D01*
X211565628Y-118795314D01*
X211536599Y-118911429D01*
X211536599Y-118998514D01*
X211565628Y-119114629D01*
X211594656Y-119172686D01*
X211652714Y-119230743D01*
X211739799Y-119259771D01*
X211884942Y-119259771D01*
X211333399Y-118650171D02*
X210956028Y-118650171D01*
X211159228Y-118882400D01*
X211072142Y-118882400D01*
X211014085Y-118911429D01*
X210985056Y-118940457D01*
X210956028Y-118998514D01*
X210956028Y-119143657D01*
X210985056Y-119201714D01*
X211014085Y-119230743D01*
X211072142Y-119259771D01*
X211246314Y-119259771D01*
X211304371Y-119230743D01*
X211333399Y-119201714D01*
X211249942Y-110369771D02*
X211249942Y-109760171D01*
X211104799Y-109760171D01*
X211017714Y-109789200D01*
X210959656Y-109847257D01*
X210930628Y-109905314D01*
X210901599Y-110021429D01*
X210901599Y-110108514D01*
X210930628Y-110224629D01*
X210959656Y-110282686D01*
X211017714Y-110340743D01*
X211104799Y-110369771D01*
X211249942Y-110369771D01*
X210669371Y-109818229D02*
X210640342Y-109789200D01*
X210582285Y-109760171D01*
X210437142Y-109760171D01*
X210379085Y-109789200D01*
X210350056Y-109818229D01*
X210321028Y-109876286D01*
X210321028Y-109934343D01*
X210350056Y-110021429D01*
X210698399Y-110369771D01*
X210321028Y-110369771D01*
X209979942Y-101479771D02*
X209979942Y-100870171D01*
X209834799Y-100870171D01*
X209747714Y-100899200D01*
X209689656Y-100957257D01*
X209660628Y-101015314D01*
X209631599Y-101131429D01*
X209631599Y-101218514D01*
X209660628Y-101334629D01*
X209689656Y-101392686D01*
X209747714Y-101450743D01*
X209834799Y-101479771D01*
X209979942Y-101479771D01*
X209051028Y-101479771D02*
X209399371Y-101479771D01*
X209225199Y-101479771D02*
X209225199Y-100870171D01*
X209283256Y-100957257D01*
X209341314Y-101015314D01*
X209399371Y-101044343D01*
X144865228Y-119259771D02*
X144865228Y-118650171D01*
X144720085Y-118650171D01*
X144633000Y-118679200D01*
X144574942Y-118737257D01*
X144545914Y-118795314D01*
X144516885Y-118911429D01*
X144516885Y-118998514D01*
X144545914Y-119114629D01*
X144574942Y-119172686D01*
X144633000Y-119230743D01*
X144720085Y-119259771D01*
X144865228Y-119259771D01*
X144284657Y-118708229D02*
X144255628Y-118679200D01*
X144197571Y-118650171D01*
X144052428Y-118650171D01*
X143994371Y-118679200D01*
X143965342Y-118708229D01*
X143936314Y-118766286D01*
X143936314Y-118824343D01*
X143965342Y-118911429D01*
X144313685Y-119259771D01*
X143936314Y-119259771D01*
X143733114Y-118650171D02*
X143355743Y-118650171D01*
X143558943Y-118882400D01*
X143471857Y-118882400D01*
X143413800Y-118911429D01*
X143384771Y-118940457D01*
X143355743Y-118998514D01*
X143355743Y-119143657D01*
X143384771Y-119201714D01*
X143413800Y-119230743D01*
X143471857Y-119259771D01*
X143646029Y-119259771D01*
X143704086Y-119230743D01*
X143733114Y-119201714D01*
X145500228Y-124339771D02*
X145500228Y-123730171D01*
X145355085Y-123730171D01*
X145268000Y-123759200D01*
X145209942Y-123817257D01*
X145180914Y-123875314D01*
X145151885Y-123991429D01*
X145151885Y-124078514D01*
X145180914Y-124194629D01*
X145209942Y-124252686D01*
X145268000Y-124310743D01*
X145355085Y-124339771D01*
X145500228Y-124339771D01*
X144919657Y-123788229D02*
X144890628Y-123759200D01*
X144832571Y-123730171D01*
X144687428Y-123730171D01*
X144629371Y-123759200D01*
X144600342Y-123788229D01*
X144571314Y-123846286D01*
X144571314Y-123904343D01*
X144600342Y-123991429D01*
X144948685Y-124339771D01*
X144571314Y-124339771D01*
X144019771Y-123730171D02*
X144310057Y-123730171D01*
X144339086Y-124020457D01*
X144310057Y-123991429D01*
X144252000Y-123962400D01*
X144106857Y-123962400D01*
X144048800Y-123991429D01*
X144019771Y-124020457D01*
X143990743Y-124078514D01*
X143990743Y-124223657D01*
X144019771Y-124281714D01*
X144048800Y-124310743D01*
X144106857Y-124339771D01*
X144252000Y-124339771D01*
X144310057Y-124310743D01*
X144339086Y-124281714D01*
X209979942Y-137039771D02*
X209979942Y-136430171D01*
X209834799Y-136430171D01*
X209747714Y-136459200D01*
X209689656Y-136517257D01*
X209660628Y-136575314D01*
X209631599Y-136691429D01*
X209631599Y-136778514D01*
X209660628Y-136894629D01*
X209689656Y-136952686D01*
X209747714Y-137010743D01*
X209834799Y-137039771D01*
X209979942Y-137039771D01*
X209080056Y-136430171D02*
X209370342Y-136430171D01*
X209399371Y-136720457D01*
X209370342Y-136691429D01*
X209312285Y-136662400D01*
X209167142Y-136662400D01*
X209109085Y-136691429D01*
X209080056Y-136720457D01*
X209051028Y-136778514D01*
X209051028Y-136923657D01*
X209080056Y-136981714D01*
X209109085Y-137010743D01*
X209167142Y-137039771D01*
X209312285Y-137039771D01*
X209370342Y-137010743D01*
X209399371Y-136981714D01*
X160798285Y-114814771D02*
X160798285Y-114205171D01*
X160595085Y-114640600D01*
X160391885Y-114205171D01*
X160391885Y-114814771D01*
X160101599Y-114814771D02*
X160101599Y-114205171D01*
X159753256Y-114814771D02*
X160014513Y-114466429D01*
X159753256Y-114205171D02*
X160101599Y-114553514D01*
X159172685Y-114814771D02*
X159521028Y-114814771D01*
X159346856Y-114814771D02*
X159346856Y-114205171D01*
X159404913Y-114292257D01*
X159462971Y-114350314D01*
X159521028Y-114379343D01*
D13*
X162384334Y-118766891D02*
X162384334Y-119734510D01*
X162384334Y-119635571D02*
X162384334Y-120603190D01*
M02*
