G04 #@! TF.FileFunction,Soldermask,Top*
%FSLAX46Y46*%
G04 Gerber Fmt 4.6, Leading zero omitted, Abs format (unit mm)*
G04 Created by KiCad (PCBNEW 4.0.6) date 09/10/17 15:15:48*
%MOMM*%
%LPD*%
G01*
G04 APERTURE LIST*
%ADD10C,0.100000*%
%ADD11R,1.201420X1.303020*%
%ADD12R,1.402080X1.000760*%
%ADD13R,1.303020X1.201420*%
%ADD14R,1.221740X6.202680*%
%ADD15C,1.879600*%
%ADD16R,0.861060X0.502920*%
%ADD17R,1.102360X1.201420*%
%ADD18R,0.553200X1.353200*%
%ADD19R,0.803200X1.753200*%
%ADD20R,1.403200X1.403200*%
%ADD21R,1.803200X1.703200*%
%ADD22C,3.505200*%
G04 APERTURE END LIST*
D10*
D11*
X190480000Y-120848360D03*
X190480000Y-119151640D03*
X190480000Y-115768360D03*
X190480000Y-114071640D03*
D12*
X187940000Y-125979160D03*
X187940000Y-124180840D03*
D13*
X181376640Y-125715000D03*
X183073360Y-125715000D03*
X183073360Y-114285000D03*
X181376640Y-114285000D03*
X183073360Y-116190000D03*
X181376640Y-116190000D03*
D14*
X142220000Y-128890000D03*
X139680000Y-128890000D03*
X114280000Y-128890000D03*
X116820000Y-128890000D03*
X119360000Y-128890000D03*
X121900000Y-128890000D03*
X124440000Y-128890000D03*
X126980000Y-128890000D03*
X129520000Y-128890000D03*
X132060000Y-128890000D03*
X134600000Y-128890000D03*
X137140000Y-128890000D03*
X142220000Y-111110000D03*
X139680000Y-111110000D03*
X114280000Y-111110000D03*
X116820000Y-111110000D03*
X119360000Y-111110000D03*
X121900000Y-111110000D03*
X124440000Y-111110000D03*
X126980000Y-111110000D03*
X129520000Y-111110000D03*
X132060000Y-111110000D03*
X134600000Y-111110000D03*
X137140000Y-111110000D03*
D15*
X161270000Y-118001020D03*
X158730000Y-118001020D03*
D16*
X204099480Y-133347700D03*
X204099480Y-132700000D03*
X204099480Y-132052300D03*
X202260520Y-132052300D03*
X202260520Y-132700000D03*
X202260520Y-133347700D03*
X207340520Y-132052300D03*
X207340520Y-132700000D03*
X207340520Y-133347700D03*
X209179480Y-133347700D03*
X209179480Y-132700000D03*
X209179480Y-132052300D03*
X207340520Y-106652300D03*
X207340520Y-107300000D03*
X207340520Y-107947700D03*
X209179480Y-107947700D03*
X209179480Y-107300000D03*
X209179480Y-106652300D03*
X202260520Y-106652300D03*
X202260520Y-107300000D03*
X202260520Y-107947700D03*
X204099480Y-107947700D03*
X204099480Y-107300000D03*
X204099480Y-106652300D03*
D13*
X190901640Y-123175000D03*
X192598360Y-123175000D03*
D11*
X193020000Y-120848360D03*
X193020000Y-119151640D03*
D13*
X185821640Y-114285000D03*
X187518360Y-114285000D03*
D11*
X185400000Y-125928360D03*
X185400000Y-124231640D03*
D13*
X187518360Y-116190000D03*
X185821640Y-116190000D03*
X183073360Y-118095000D03*
X181376640Y-118095000D03*
D11*
X116820000Y-105608360D03*
X116820000Y-103911640D03*
X199370000Y-113228360D03*
X199370000Y-111531640D03*
X204450000Y-126771640D03*
X204450000Y-128468360D03*
X206990000Y-126771640D03*
X206990000Y-128468360D03*
X209530000Y-126771640D03*
X209530000Y-128468360D03*
X201910000Y-126771640D03*
X201910000Y-128468360D03*
X209530000Y-113228360D03*
X209530000Y-111531640D03*
X201910000Y-113228360D03*
X201910000Y-111531640D03*
X206990000Y-113228360D03*
X206990000Y-111531640D03*
X204450000Y-113228360D03*
X204450000Y-111531640D03*
D13*
X110048360Y-114920000D03*
X108351640Y-114920000D03*
X110048360Y-117460000D03*
X108351640Y-117460000D03*
X108351640Y-125080000D03*
X110048360Y-125080000D03*
X108351640Y-122540000D03*
X110048360Y-122540000D03*
X108351640Y-120000000D03*
X110048360Y-120000000D03*
D17*
X123949780Y-103962440D03*
X119850220Y-103962440D03*
X119850220Y-105557560D03*
X123949780Y-105557560D03*
D18*
X187320000Y-118975000D03*
X186670000Y-118975000D03*
X186020000Y-118975000D03*
X186020000Y-121012500D03*
X187320000Y-121025000D03*
D19*
X208895000Y-122700000D03*
X207625000Y-122700000D03*
X206355000Y-122700000D03*
X205085000Y-122700000D03*
X203815000Y-122700000D03*
X202545000Y-122700000D03*
X210165000Y-122700000D03*
X201275000Y-122700000D03*
X201275000Y-117300000D03*
X202545000Y-117300000D03*
X203815000Y-117300000D03*
X205085000Y-117300000D03*
X206355000Y-117300000D03*
X207625000Y-117300000D03*
X208895000Y-117300000D03*
X210165000Y-117300000D03*
D20*
X183225000Y-120105000D03*
X181225000Y-120105000D03*
D21*
X182225000Y-123355000D03*
D11*
X212070000Y-120848360D03*
X212070000Y-119151640D03*
D22*
X150475000Y-120000000D03*
X169525000Y-120000000D03*
M02*
